/* XPM */
static char *cby8w_9fl3z[] = {
/* columns rows colors chars-per-pixel */
"64 64 256 2 ",
"   c black",
".  c #0000A8",
"X  c #00A800",
"o  c #00A8A8",
"O  c #A80000",
"+  c #A800A8",
"@  c #A85400",
"#  c gray66",
"$  c gray33",
"%  c #5454FC",
"&  c #54FC54",
"*  c #54FCFC",
"=  c #FC5454",
"-  c #FC54FC",
";  c #FCFC54",
":  c gray99",
">  c #ECECEC",
",  c gainsboro",
"<  c #D0D0D0",
"1  c #C0C0C0",
"2  c #B4B4B4",
"3  c gray66",
"4  c #989898",
"5  c gray55",
"6  c #7C7C7C",
"7  c gray44",
"8  c #646464",
"9  c gray33",
"0  c #484848",
"q  c gray22",
"w  c #2C2C2C",
"e  c #202020",
"r  c #FC0000",
"t  c #EC0000",
"y  c #E00000",
"u  c #D40000",
"i  c #C80000",
"p  c #BC0000",
"a  c #B00000",
"s  c #A40000",
"d  c #980000",
"f  c #880000",
"g  c #7C0000",
"h  c #700000",
"j  c #640000",
"k  c #580000",
"l  c #4C0000",
"z  c #400000",
"x  c #FCD8D8",
"c  c #FCB8B8",
"v  c #FC9C9C",
"b  c #FC7C7C",
"n  c #FC5C5C",
"m  c #FC4040",
"M  c #FC2020",
"N  c #FC0000",
"B  c #FCA85C",
"V  c #FC9840",
"C  c #FC8820",
"Z  c #FC7800",
"A  c #E46C00",
"S  c #CC6000",
"D  c #B45400",
"F  c #9C4C00",
"G  c #FCFCD8",
"H  c #FCFCB8",
"J  c #FCFC9C",
"K  c #FCFC7C",
"L  c #FCF85C",
"P  c #FCF440",
"I  c #FCF420",
"U  c #FCF400",
"Y  c #E4D800",
"T  c #CCC400",
"R  c #B4AC00",
"E  c #9C9C00",
"W  c #848400",
"Q  c #706C00",
"!  c #585400",
"~  c #404000",
"^  c #D0FC5C",
"/  c #C4FC40",
"(  c #B4FC20",
")  c #A0FC00",
"_  c #90E400",
"`  c #80CC00",
"'  c #74B400",
"]  c #609C00",
"[  c #D8FCD8",
"{  c #BCFCB8",
"}  c #9CFC9C",
"|  c #80FC7C",
" . c #60FC5C",
".. c #40FC40",
"X. c #20FC20",
"o. c #00FC00",
"O. c #00FC00",
"+. c #00EC00",
"@. c #00E000",
"#. c #00D400",
"$. c #04C800",
"%. c #04BC00",
"&. c #04B000",
"*. c #04A400",
"=. c #049800",
"-. c #048800",
";. c #047C00",
":. c #047000",
">. c #046400",
",. c #045800",
"<. c #044C00",
"1. c #044000",
"2. c #D8FCFC",
"3. c #B8FCFC",
"4. c #9CFCFC",
"5. c #7CFCF8",
"6. c #5CFCFC",
"7. c #40FCFC",
"8. c #20FCFC",
"9. c #00FCFC",
"0. c #00E4E4",
"q. c #00CCCC",
"w. c #00B4B4",
"e. c #009C9C",
"r. c #008484",
"t. c #007070",
"y. c #005858",
"u. c #004040",
"i. c #5CBCFC",
"p. c #40B0FC",
"a. c #20A8FC",
"s. c #009CFC",
"d. c #008CE4",
"f. c #007CCC",
"g. c #006CB4",
"h. c #005C9C",
"j. c #D8D8FC",
"k. c #B8BCFC",
"l. c #9C9CFC",
"z. c #7C80FC",
"x. c #5C60FC",
"c. c #4040FC",
"v. c #2024FC",
"b. c #0004FC",
"n. c #0000FC",
"m. c #0000EC",
"M. c #0000E0",
"N. c #0000D4",
"B. c #0000C8",
"V. c #0000BC",
"C. c #0000B0",
"Z. c #0000A4",
"A. c #000098",
"S. c #000088",
"D. c #00007C",
"F. c #000070",
"G. c #000064",
"H. c #000058",
"J. c #00004C",
"K. c #000040",
"L. c #282828",
"P. c #FCE034",
"I. c #FCD424",
"U. c #FCCC18",
"Y. c #FCC008",
"T. c #FCB400",
"R. c #B420FC",
"E. c #A800FC",
"W. c #9800E4",
"Q. c #8000CC",
"!. c #7400B4",
"~. c #60009C",
"^. c #500084",
"/. c #440070",
"(. c #340058",
"). c #280040",
"_. c #FCD8FC",
"`. c #FCB8FC",
"'. c #FC9CFC",
"]. c #FC7CFC",
"[. c #FC5CFC",
"{. c #FC40FC",
"}. c #FC20FC",
"|. c #FC00FC",
" X c #E000E4",
".X c #C800CC",
"XX c #B400B4",
"oX c #9C009C",
"OX c #840084",
"+X c #6C0070",
"@X c #580058",
"#X c #400040",
"$X c #FCE8DC",
"%X c #FCE0D0",
"&X c #FCD8C4",
"*X c #FCD4BC",
"=X c #FCCCB0",
"-X c #FCC4A4",
";X c #FCBC9C",
":X c #FCB890",
">X c #FCB080",
",X c #FCA470",
"<X c #FC9C60",
"1X c #F0945C",
"2X c #E88C58",
"3X c #DC8854",
"4X c #D08050",
"5X c #C87C4C",
"6X c #BC7848",
"7X c #B47044",
"8X c #A86840",
"9X c #A0643C",
"0X c #9C6038",
"qX c #905C34",
"wX c #885830",
"eX c #80502C",
"rX c #744C28",
"tX c #6C4824",
"yX c #5C4020",
"uX c #543C1C",
"iX c #483818",
"pX c #403018",
"aX c #382C14",
"sX c #28200C",
"dX c #600064",
"fX c #006464",
"gX c #006060",
"hX c #00001C",
"jX c #00002C",
"kX c #302410",
"lX c #480048",
"zX c #500050",
"xX c #000034",
"cX c gray11",
"vX c #4C4C4C",
"bX c gray36",
"nX c gray25",
"mX c gray19",
"MX c #343434",
"NX c #D8F4F4",
"BX c #B8E8E8",
"VX c #9CDCDC",
"CX c #74C8C8",
"ZX c #48C0C0",
"AX c #20B4B4",
"SX c #20B0B0",
"DX c #00A4A4",
"FX c #009898",
"GX c #008C8C",
"HX c #008484",
"JX c #007C7C",
"KX c #007878",
"LX c #007474",
"PX c #007070",
"IX c #006C6C",
"UX c #980088",
/* pixels */
"5 5 5 5 5 5 5 5 $ cXMX5 5 5 5 5 5 5 5 5 5 5 5 5 5 $ cXMX5 5 5 5 5 5 5 5 5 $ cXMX5 5 5 5 5 5 5 5 5 5 5 $ cXMX5 5 5 5 5 5 5 5 5 5 ",
"0 8 6 8X8 $ $ vXnXcXMX5 8 6 0X8 8 bXrX8 bXbX$ q MXnXcXMX5 8 9X8 bX8 bXvXrXnXcXMX5 5 7 6 8 $ vX$ bXrXbXnXcXMX5 6 5 6 6 7 wXrXbX8 ",
"8 8 5 6 rX$ $ vXnXcXMX5 8 9X5 7 wX8 bX8 bX8 yXiXiXnXcXMX5 6 6 8 8 8 wXbX8 nXcXMX5 5 9X8 bXbXwX8 8 bXbXnXcXMX5 8 9X8 8 bX8 7 8 7 ",
"8 8 8 8 8 8 8 8 nXcXMX5 8 8 6 7 8 rX$ vX$ $ q nXnXnXcXMX5 5 7 wX$ bX8 7 6 nXcXMX5 5 6 0XqX6 7 8 bX8 7 nXcXMX5 bXwX8 rX8 8 8 8 8 ",
"$ bX7 8 8 8 6 8 nXcXMX5 bXbX8 8 $ $ vX$ $ $ yXiXq nXcXMX5 5 8 $ rXwX8 7 5 nXcXMX5 5 5 6 6 5 7 bXbX7 8 nXcXMX5 8 8 8 8 8 $ yXvX$ ",
"$ bX7 7 6 6 6 6 nXcXMX5 bX8 8 bXnXyXuX$ $ yXiXMXiXnXcXMX5 5 wXwX8 7 6 5 6 nXcXMX5 5 5 5 5 8 rXbX8 bX7 nXcXMX5 rX8 bX8 8 vXvX$ $ ",
"8 7 6 6 6 8 $ bXnXcXMX$ nXnXnXnXnXnXnXnXnXnXnXnXnXnXcXMX5 6 8 7 7 5 6 6 8 nXcXMX5 5 5 5 qX$ $ 8 rXvX$ nXcXMX5 rXbX8 wXbXbXbX8 8 ",
"8 7 6 6 8 rXrX8 nXcXMXcXcXcXcXcXcXcXcXcXcXcXcXcXcXcXcXMX5 5 9X0X6 6 6 bXvXnXcXMX5 6 8 8 rX$ rX8 $ q q nXcXMX5 yXbXwXbX$ 0 vXbX8 ",
"8 8 8 8 8 bX8 7 nXcXMXMXMXMXMXMXMXMXMXMXMXMXMXMXMXMXMXMX5 5 9X8 8 bX$ $ $ nXcXMX5 6 8 8 bX8 7 8 0 q yXnXcXMX5 $ bX8 vXyX0 $ bXbX",
"bX$ $ 8 8 8 7 8 nXcXMX5 5 5 5 5 5 5 5 5 5 5 5 5 5 $ cXMX5 5 8 $ $ 8 bXvXrXnXcXMX5 5 6 6 qX8 7 8 yXq yXnXcXMX5 7 6 rXyXyX$ $ bX8 ",
"nXnXnXnXnXnXnXnXnXcXMX5 vXrX8 6 5 5 8 8 9X5 6 6 7 nXcXMX5 6 qX$ rXrXvX$ 8 nXcXMX5 5 5 5 8 7 8 $ yXyXyXnXcXMX$ nXnXnXnXnXnXnXnXnX",
"cXcXcXcXcXcXcXcXcXcXMX5 $ 8 8 5 5 5 8 8 9X5 5 6 7 nXcXMX5 7 qX$ rXrXyXrX8 nXcXMX5 5 5 6 6 7 $ 0 yXq yXnXcXMXcXcXcXcXcXcXcXcXcXcX",
"MXMXMXMXMXMXMXMXMXMXMX5 rX8 8 5 # 5 9X8 7 5 6 7 8 nXcXMX5 8 rXrXrXrXyX$ 8 nXcXMX5 6 5 7 qXwX$ yXyXq yXnXcXMXMXMXMXMXMXMXMXMXMXMX",
"MX5 5 5 5 5 5 5 $ cXMX5 8 8 8 5 5 5 6 7 6 5 6 8 8 nXcXMX5 $ rX$ yX0 yXvX8 nXcXMX5 6 5 6 qXbXnXyXyXyXyXnXcXMX5 5 5 5 5 5 5 5 $ cX",
"MX5 6 5 6 bX0 nXnXcXMX5 8 8 0X5 5 6 qX8 8 8 8 8 7 nXcXMX5 rXrXrXvXvXnX$ 8 nXcXMX5 6 6 6 8 $ yXyXq yX$ nXcXMX5 wXrXqX6 5 6 8 nXcX",
"MX5 8 8 rXvXyX0 nXcXMX5 8 0X5 5 5 8 vXyXvX$ $ bX8 nXcXMX5 bXwX7 bXrX$ 8 6 nXcXMX5 8 6 7 8 rXyXq yX0 bXnXcXMX5 bX8 6 5 6 6 8 nXcX",
"MX5 6 wX$ rXrXvXnXcXMX5 8 8 0X6 8 bXvXyX0 $ bX8 8 nXcXMX5 rXqX8 7 $ rX8 5 nXcXMX5 8 6 8 rXrXuXiXyX$ $ nXcXMX5 8 qX8 5 6 8 8 nXcX",
"MX5 5 8 wX8 wXrXnXcXMX5 8 bXrX$ 8 8 bX$ $ bX8 8 8 nXcXMX5 qX9X6 qXwX8 8 6 nXcXMX5 6 6 bXvXyXuXyXyX$ bXnXcXMX5 8 8 5 6 6 8 8 nXcX",
"MX5 5 6 7 6 7 8 nXcXMX5 bX8 8 8 7 6 8 rXbX8 6 7 vXnXcXMX5 6 5 5 bX8 8 bX8 nXcXMX5 5 6 bXrXyXyXyXvXbX7 nXcXMX5 7 6 5 5 6 8 vXnXcX",
"MX5 5 6 7 6 7 rXnXcXMX5 8 9X6 6 6 6 8 bX8 8 8 8 q nXcXMX5 9X6 8 bXwX7 8 6 nXcXMX5 6 bXrXyXvX$ rX8 8 8 nXcXMX5 8 5 5 6 8 0 yXnXcX",
"MX5 6 8 8 8 wX0 nXcXMX5 8 5 5 7 5 7 8 8 8 7 8 $ q nXcXMX5 8 8 7 6 6 5 8 6 nXcXMX5 8 $ yXvX8 8 8 bX8 $ nXcXMX5 6 6 8 bX$ yXyXnXcX",
"MX5 8 $ rXbXbXvXnXcXMX5 7 6 7 bXbXbXvXvX8 bXrXyXq nXcXMX5 0X5 5 6 6 6 7 6 nXcXMX5 rX$ vX$ bX8 8 8 bXnXnXcXMX5 8 8 vXvX0 vX0 nXcX",
"MX$ nXnXnXnXnXnXnXcXMX$ nXnXnXnXnXnXnXnXnXnXnXnXnXnXcXMX5 6 5 6 8 8 8 5 6 nXcXMX5 $ vX$ bX6 5 8 8 uXq nXcXMX5 bX8 vX$ $ $ $ nXcX",
"MXcXcXcXcXcXcXcXcXcXMXcXcXcXcXcXcXcXcXcXcXcXcXcXcXcXcXMX5 8 6 wX8 8 6 8 rXnXcXMX$ nXnXnXnXnXnXnXnXnXnXnXcXMX$ nXnXnXnXnXnXnXnXcX",
"MXMXMXMXMXMXMXMXMXMXMXMXMXMXMXMXMXMXMXMXMXMXMXMXMXMXMXMX$ nXnXnXnXnXnXnXnXnXcXMXcXcXcXcXcXcXcXcXcXcXcXcXcXMXcXcXcXcXcXcXcXcXcXcX",
"MX5 5 5 5 5 5 5 5 5 5 5 5 $ cXMX5 5 5 5 5 5 5 5 $ cXMXMXcXcXcXcXcXcXcXcXcXcXcXMXMXMXMXMXMXMXMXMXMXMXMXMXMXMXMXMXMXMXMXMXMXMXMXMX",
"MX5 6 5 6 6 5 5 5 6 6 8 rXnXcXMX5 8 5 0XbX8 bXvXnXcXMXMXMXMXMXMXMXMXMX5 5 5 5 5 5 5 5 $ cXMX5 5 5 5 5 5 5 5 5 5 5 5 5 5 5 5 $ cX",
"MX5 6 5 5 5 5 6 6 5 5 8 0XnXcXMX5 9X5 0XbXbX8 bXnXcXMX5 5 5 5 5 $ cXMX5 qX0X8 0X8 $ rXnXcXMX5 rXwXqX8 6 7 7 qXqXbX$ $ rXbX8 nXcX",
"MX5 6 5 6 9X9X6 5 5 5 7 6 nXcXMX5 9X5 6 rX$ rX8 nXcXMX5 8 8 0X6 nXcXMX5 qX9X9X9XwXrXrXnXcXMX5 wX7 7 6 6 8 qXbXqXwXrXwXrXbXwXnXcX",
"MX5 6 6 7 7 0X6 6 5 5 6 6 nXcXMX5 5 9XwXrX8 8 8 nXcXMX5 wX8 8 6 nXcXMX5 9X5 8 8 wXwXwXnXcXMX5 7 5 6 5 6 7 $ qX9XqXwX8 0X9X7 nXcX",
"MX5 6 6 8 8 8 8 7 6 6 bX8 nXcXMX5 7 7 bX8 wX8 8 nXcXMX5 rX8 8 8 nXcXMX5 9X9XqXbX$ rX0 nXcXMX5 6 6 0X8 qX8 rXwXwXwX8 6 5 6 6 nXcX",
"MX5 6 6 8 8 8 8 8 rXbXvX$ nXcXMX5 wX7 8 8 wX8 8 nXcXMX5 8 qX8 6 nXcXMX5 8 9XqXbXvXyXyXnXcXMX5 8 $ wXqX8 8 rXrX$ $ 8 6 7 6 8 nXcX",
"MX5 7 7 7 7 5 7 bXvX$ vX$ nXcXMX5 $ wX8 8 8 8 rXnXcXMX5 6 6 5 5 nXcXMX5 8 9XwX$ rXrX$ nXcXMX5 $ $ rXwX8 8 $ bX8 bXwX8 6 8 8 nXcX",
"MX5 7 6 7 6 7 bXrXrX$ vX$ nXcXMX5 bXwX8 bXrX0 $ nXcXMX5 5 5 6 8 nXcXMX5 8 8 wXrXrXvX$ nXcXMX5 $ rXwXrXbXbX$ vX$ bX8 8 6 8 8 nXcX",
"MX5 7 7 8 8 wXrXbX8 rXrX8 nXcXMX5 $ 8 6 8 rXyX$ nXcXMX5 8 8 vXvXnXcXMX5 bXbXbXbX8 bX8 nXcXMX5 $ wX8 qX8 8 vXyXvX8 8 8 8 8 bXnXcX",
"MX5 8X6 8 8 wX8 8 8 bX8 8 nXcXMX$ nXnXnXnXnXnXnXnXcXMX$ nXnXnXnXnXcXMX5 bX8 wXqX8 bXyXnXcXMX5 7 6 5 6 6 wXvX$ $ 8 8 rXrXrX$ nXcX",
"MX5 9X7 8 8 wX8 bX8 8 $ rXnXcXMXcXcXcXcXcXcXcXcXcXcXMXcXcXcXcXcXcXcXMX5 bX9X0X7 8 yXq nXcXMX5 9X5 5 0XqXwXrXrXrXbX8 vX$ $ $ nXcX",
"MX5 5 7 8 8 8 8 $ vXyXq vXnXcXMXMXMXMXMXMXMXMXMXMXMXMXMXMXMXMXMXMXMXMX5 qXqX6 8 8 vXyXnXcXMX5 7 6 7 8 8 8 8 8 8 $ vXyXyXq 0 nXcX",
"MX5 5 8X7 5 6 $ yXyXq yX$ nXcXMXMX5 5 5 5 5 5 5 5 5 5 5 5 5 5 5 $ cXMX5 8 bX8 0X6 rX$ nXcXMX5 6 9X9X5 7 6 6 8 $ nX$ 0 yXyX$ nXcX",
"MX5 5 5 6 5 6 bXvX$ 0 $ 7 nXcXMX5 6 6 7 6 6 6 8 6 7 qX8 8 8 6 8 nXcXMX5 wX7 6 5 7 8 vXnXcXMX5 5 9X6 5 6 5 5 8 vX$ $ $ $ rX8 nXcX",
"MX5 5 7 qX8 8 $ $ vX$ bX6 nXcXMX5 5 5 5 6 5 5 9X5 5 qXbX8 8 8 bXnXcXMX5 7 7 6 6 6 8 vXnXcXMX5 5 9X6 5 6 5 5 bXyXyX$ 8 bX8 8 nXcX",
"MX5 bXvX$ 8 bXyXvX$ 8 8 7 nXcXMX5 6 5 6 7 6 6 7 5 5 8 wX7 6 8 8 nXcXMX5 wXwX7 7 8 7 rXnXcXMX5 6 8 7 6 6 5 7 $ q q $ bX8 8 8 nXcX",
"MX5 bXqX8 qX8 $ $ rXbX8 rXnXcXMX5 6X5 6 qX8 5 6 5 5 8 6 6 5 8 bXnXcXMX5 wXwX8 7 6 7 rXnXcXMX5 6 7 7 5 6 7 8 uXiXyXvX8 8 8 8 nXcX",
"MX5 rX7 6 7 $ bXrXbX8 vXvXnXcXMX5 5 5 8 wX8 5 5 5 8 bX8 8 8 8 8 nXcXMX5 8 8 8 7 8 8 bXnXcXMX5 5 6 5 6 6 7 8 yXq 0 8 8 7 8 8 nXcX",
"MX$ nXnXnXnXnXnXnXnXnXnXnXnXcXMX5 5 6 8 rXwX6 7 7 $ vX$ rXbX8 vXnXcXMX5 6 8 8 qX8 7 6 nXcXMX$ nXnXnXnXnXnXnXnXnXnXnXnXnXnXnXnXcX",
"MXcXcXcXcXcXcXcXcXcXcXcXcXcXcXMX5 0X0XrX0 bX8 8 8 vX$ $ rXbX8 yXnXcXMX5 5 8 8 qX7 6 6 nXcXMXcXcXcXcXcXcXcXcXcXcXcXcXcXcXcXcXcXcX",
"MXMXMXMXMXMXMXMXMXMXMXMXMXMXMXMX5 7 7 bXrX7 7 8 bX$ vX$ bX8 8 vXnXcXMX5 6 8 0X6 8 8 8 nXcXMXMXMXMXMXMXMXMXMXMXMXMXMXMXMXMXMXMXMX",
"5 5 5 $ cXMX5 5 5 5 5 5 5 $ cXMX5 8 8 rXbX8 8 bX8 8 rX8 8 rX$ vXnXcXMX5 6 6 6 6 7 8 8 nXcXMX5 5 5 5 5 5 5 5 5 $ cXMX5 5 5 5 5 5 ",
"0X7 $ yXcXMX5 8 8 6 qX8 7 nXcXMX5 rXrXrXrX8 rXvX$ rXrX8 rXyXvXrXnXcXMX5 5 8 8 bX8 rXrXnXcXMX5 8 6 7X6 9X6 6 6 nXcXMX5 7 6 wXqX8 ",
"6 8 vXyXcXMX5 8 8 0XqX8 bXnXcXMX5 wXwXrXrXbX8 $ $ $ vXvX$ q yX$ nXcXMX5 8 $ rX8 8 $ vXnXcXMX5 6 7 5 7X6 5 6 7 nXcXMX5 8 7 8 8 6 ",
"7 8 vX$ cXMX5 8 7 9X8 rXyXnXcXMX5 wXwX8 bX8 8 rXbX8 vX$ yXyX$ $ nXcXMX5 $ rXrX8 bXbX$ nXcXMX5 qX6 5 6 7 0X8 bXnXcXMX5 8 7 7 6 7 ",
"bXbXbX8 cXMX$ nXnXnXnXnXnXnXcXMX6 7 8 8 8 6 8 8 8 wXbXyXiXq yXvXnXcXMX5 $ $ rXbX8 rXrXnXcXMX5 bX8 6 wXwXbX$ rXnXcXMX5 9X0X7 6 8 ",
"$ 8 8 6 cXMXcXcXcXcXcXcXcXcXcXMXMX$ nXnXnXnXnXnXnXnXnXnXnXnXnXnXnXcXMX5 rX$ bX8 8 bX8 nXcXMX5 8 9X7 rXbXbX$ yXnXcXMX5 6 6 6 8 bX",
"rXrX8 7 cXMXMXMXMXMXMXMXMXMXMXMXMXcXcXcXcXcXcXcXcXcXcXcXcXcXcXcXcXcXMX$ nXnXnXnXnXnXnXnXcXMX$ nXnXnXnXnXnXnXnXnXcXMX5 7 7 8 rXrX",
"rXrXbXvXcXMX5 5 5 5 5 5 5 $ cXMXMXMXMXMXMXMXMXMXMXMXMXMXMXMXMXMXMXMXMXcXcXcXcXcXcXcXcXcXcXMXcXcXcXcXcXcXcXcXcXcXcXMX5 6 6 wX$ vX",
"$ $ yXyXcXMX5 8 6 5 6 5 6 nXcXMX5 5 5 5 5 5 5 5 5 5 5 5 5 5 5 $ cXMXMXMXMXMXMXMXMXMXMXMXMXMXMXMXMXMXMXMXMXMXMXMXMXMX5 7 6 bXbX$ ",
"bXvXnXyXcXMX5 9X9X6 6 6 6 nXcXMX5 wXwXwX9X5 5 5 6 9X7 6 6 $ rXnXcXMX5 5 5 5 5 5 5 5 5 5 5 5 5 5 5 5 5 5 5 5 5 $ cXMX5 7 5 8 8 bX",
"$ yXnX$ cXMX5 5 6 5 5 6 8 nXcXMX5 qX8 7 5 5 5 5 7 6 6 6 6 8 8 nXcXMX5 5 5 5 5 5 5 5 5 0XrX$ wXrXrXbXbXrXrX8 7 nXcXMX5 5 # 5 6 8 ",
"yXyXvX8 cXMX5 6 7 9X5 8 wXnXcXMX5 6 8X5 5 5 5 5 qX7 6 6 7 8 8 nXcXMX5 5 # 5 5 5 7 6 5 6 $ wX8 8 8 8 bX$ vXrX8 nXcXMX5 5 5 6 8 8 ",
"yX0 $ 8 cXMX5 8 bX8 7 wX8 nXcXMX5 6 5 5 5 5 5 8 bX8 wX8 8 8 7 nXcXMX5 5 5 5 5 5 7 8 8 8 bX8 6 0XqX8 vXvXbX8 7 nXcXMX5 9X5 7 8 8 ",
"vXvXwX8 cXMX5 8 rXbX8 7 7 nXcXMX5 5 6 5 5 7 8 $ vXbX8 8 7 8 7 nXcXMX5 7 7 6 9X8 rXvXrXrX8 8 7 7 wXbXvXvX8 8 6 nXcXMX5 8 5 6 8 rX",
"$ $ rX8 cXMX5 bXrXbX7 6 7 nXcXMX5 5 0X8 bXyXvX$ rX8 8 8 8 8 6 nXcXMX5 8 7 7 8 bX0 $ yXyXrXrXbXwX8 8 rXbX7 6 7 nXcXMX5 7 5 8 bX$ ",
"$ $ $ 8 cXMX5 vXrXwX6 6 8 nXcXMX5 0X0X8 $ yX$ 8 8 8 8 8 7 8 8 nXcXMX5 wXbX8 7 8 yXyXyXyXyXvXbX7 8 8 8 8 8 8 rXnXcXMX5 6 5 8 bX$ ",
"nXnXnXnXcXMX$ nXnXnXnXnXnXnXcXMX$ nXnXnXnXnXnXnXnXnXnXnXnXnXnXnXcXMX$ nXnXnXnXnXnXnXnXnXnXnXnXnXnXnXnXnXnXnXnXnXcXMX$ nXnXnXnXnX"
};
