/* XPM */
static char *cb4x9_u9ng5[] = {
/* columns rows colors chars-per-pixel */
"64 64 256 2 ",
"   c black",
".  c #0000A8",
"X  c #00A800",
"o  c #00A8A8",
"O  c #A80000",
"+  c #A800A8",
"@  c #A85400",
"#  c gray66",
"$  c gray33",
"%  c #5454FC",
"&  c #54FC54",
"*  c #54FCFC",
"=  c #FC5454",
"-  c #FC54FC",
";  c #FCFC54",
":  c gray99",
">  c #ECECEC",
",  c gainsboro",
"<  c #D0D0D0",
"1  c #C0C0C0",
"2  c #B4B4B4",
"3  c gray66",
"4  c #989898",
"5  c gray55",
"6  c #7C7C7C",
"7  c gray44",
"8  c #646464",
"9  c gray33",
"0  c #484848",
"q  c gray22",
"w  c #2C2C2C",
"e  c #202020",
"r  c #FC0000",
"t  c #EC0000",
"y  c #E00000",
"u  c #D40000",
"i  c #C80000",
"p  c #BC0000",
"a  c #B00000",
"s  c #A40000",
"d  c #980000",
"f  c #880000",
"g  c #7C0000",
"h  c #700000",
"j  c #640000",
"k  c #580000",
"l  c #4C0000",
"z  c #400000",
"x  c #FCD8D8",
"c  c #FCB8B8",
"v  c #FC9C9C",
"b  c #FC7C7C",
"n  c #FC5C5C",
"m  c #FC4040",
"M  c #FC2020",
"N  c #FC0000",
"B  c #FCA85C",
"V  c #FC9840",
"C  c #FC8820",
"Z  c #FC7800",
"A  c #E46C00",
"S  c #CC6000",
"D  c #B45400",
"F  c #9C4C00",
"G  c #FCFCD8",
"H  c #FCFCB8",
"J  c #FCFC9C",
"K  c #FCFC7C",
"L  c #FCF85C",
"P  c #FCF440",
"I  c #FCF420",
"U  c #FCF400",
"Y  c #E4D800",
"T  c #CCC400",
"R  c #B4AC00",
"E  c #9C9C00",
"W  c #848400",
"Q  c #706C00",
"!  c #585400",
"~  c #404000",
"^  c #D0FC5C",
"/  c #C4FC40",
"(  c #B4FC20",
")  c #A0FC00",
"_  c #90E400",
"`  c #80CC00",
"'  c #74B400",
"]  c #609C00",
"[  c #D8FCD8",
"{  c #BCFCB8",
"}  c #9CFC9C",
"|  c #80FC7C",
" . c #60FC5C",
".. c #40FC40",
"X. c #20FC20",
"o. c #00FC00",
"O. c #00FC00",
"+. c #00EC00",
"@. c #00E000",
"#. c #00D400",
"$. c #04C800",
"%. c #04BC00",
"&. c #04B000",
"*. c #04A400",
"=. c #049800",
"-. c #048800",
";. c #047C00",
":. c #047000",
">. c #046400",
",. c #045800",
"<. c #044C00",
"1. c #044000",
"2. c #D8FCFC",
"3. c #B8FCFC",
"4. c #9CFCFC",
"5. c #7CFCF8",
"6. c #5CFCFC",
"7. c #40FCFC",
"8. c #20FCFC",
"9. c #00FCFC",
"0. c #00E4E4",
"q. c #00CCCC",
"w. c #00B4B4",
"e. c #009C9C",
"r. c #008484",
"t. c #007070",
"y. c #005858",
"u. c #004040",
"i. c #5CBCFC",
"p. c #40B0FC",
"a. c #20A8FC",
"s. c #009CFC",
"d. c #008CE4",
"f. c #007CCC",
"g. c #006CB4",
"h. c #005C9C",
"j. c #D8D8FC",
"k. c #B8BCFC",
"l. c #9C9CFC",
"z. c #7C80FC",
"x. c #5C60FC",
"c. c #4040FC",
"v. c #2024FC",
"b. c #0004FC",
"n. c #0000FC",
"m. c #0000EC",
"M. c #0000E0",
"N. c #0000D4",
"B. c #0000C8",
"V. c #0000BC",
"C. c #0000B0",
"Z. c #0000A4",
"A. c #000098",
"S. c #000088",
"D. c #00007C",
"F. c #000070",
"G. c #000064",
"H. c #000058",
"J. c #00004C",
"K. c #000040",
"L. c #282828",
"P. c #FCE034",
"I. c #FCD424",
"U. c #FCCC18",
"Y. c #FCC008",
"T. c #FCB400",
"R. c #B420FC",
"E. c #A800FC",
"W. c #9800E4",
"Q. c #8000CC",
"!. c #7400B4",
"~. c #60009C",
"^. c #500084",
"/. c #440070",
"(. c #340058",
"). c #280040",
"_. c #FCD8FC",
"`. c #FCB8FC",
"'. c #FC9CFC",
"]. c #FC7CFC",
"[. c #FC5CFC",
"{. c #FC40FC",
"}. c #FC20FC",
"|. c #FC00FC",
" X c #E000E4",
".X c #C800CC",
"XX c #B400B4",
"oX c #9C009C",
"OX c #840084",
"+X c #6C0070",
"@X c #580058",
"#X c #400040",
"$X c #FCE8DC",
"%X c #FCE0D0",
"&X c #FCD8C4",
"*X c #FCD4BC",
"=X c #FCCCB0",
"-X c #FCC4A4",
";X c #FCBC9C",
":X c #FCB890",
">X c #FCB080",
",X c #FCA470",
"<X c #FC9C60",
"1X c #F0945C",
"2X c #E88C58",
"3X c #DC8854",
"4X c #D08050",
"5X c #C87C4C",
"6X c #BC7848",
"7X c #B47044",
"8X c #A86840",
"9X c #A0643C",
"0X c #9C6038",
"qX c #905C34",
"wX c #885830",
"eX c #80502C",
"rX c #744C28",
"tX c #6C4824",
"yX c #5C4020",
"uX c #543C1C",
"iX c #483818",
"pX c #403018",
"aX c #382C14",
"sX c #28200C",
"dX c #600064",
"fX c #006464",
"gX c #006060",
"hX c #00001C",
"jX c #00002C",
"kX c #302410",
"lX c #480048",
"zX c #500050",
"xX c #000034",
"cX c gray11",
"vX c #4C4C4C",
"bX c gray36",
"nX c gray25",
"mX c gray19",
"MX c #343434",
"NX c #D8F4F4",
"BX c #B8E8E8",
"VX c #9CDCDC",
"CX c #74C8C8",
"ZX c #48C0C0",
"AX c #20B4B4",
"SX c #20B0B0",
"DX c #00A4A4",
"FX c #009898",
"GX c #008C8C",
"HX c #008484",
"JX c #007C7C",
"KX c #007878",
"LX c #007474",
"PX c #007070",
"IX c #006C6C",
"UX c #980088",
/* pixels */
"6 6 6 6 6 6 6 6 nX  e 6 6 6 6 6 6 6 6 6 6 6 6 6 6 nX  e 6 6 6 6 6 6 6 6 6 nX  e 6 6 6 6 6 6 6 6 6 6 6 nX  e 6 6 6 6 6 6 6 6 6 6 ",
"MX$ 8 qXvXnXnXq w   e 6 $ 8 eX$ vX0 yXvX0 0 nXL.e w   e 6 $ wX$ 0 vX0 q yXw   e 6 7 bX8 $ nXq nX0 yX0 w   e 6 8 7 8 8 bXtXyX0 vX",
"$ $ 7 8 uXnXnXq w   e 6 $ wX7 bXtX$ 0 vX0 vXpXkXkXw   e 6 8 8 $ $ $ tX0 $ w   e 6 7 wX$ 0 0 tX$ $ 0 0 w   e 6 $ wX$ vX0 vXbX$ bX",
"$ $ $ $ $ $ vX$ w   e 6 vX$ 8 bXvXyXnXq nXnXL.w w w   e 6 7 bXtXnX0 vXbX8 w   e 6 7 8 eXrX8 bX$ 0 vXbXw   e 6 0 tXvXyX$ vXvXvX$ ",
"nX0 bX$ $ $ 8 $ w   e 6 0 0 $ vXnXnXq nXnXnXpXkXL.w   e 6 7 $ nXyXtX$ bX7 w   e 6 7 7 8 8 6 bX0 0 bXvXw   e 6 $ vX$ vX$ nXiXq nX",
"nX0 bXbX8 8 8 8 w   e 6 0 vXvX0 w pXaXnXnXpXkXe kXw   e 6 7 tXtX$ bX8 7 8 w   e 6 7 7 6 7 $ yX0 vX0 bXw   e 6 yX$ 0 $ vXq q nXnX",
"$ bX8 8 8 $ nX0 w   e nXw w w w w w w w w w w w w w   e 6 8 $ bXbX7 8 8 $ w   e 6 7 6 7 rXnXnX$ yXq nXw   e 6 uX0 $ tX0 0 0 $ $ ",
"$ bX8 8 vXyXyX$ w   e                                 e 6 7 wXeX8 8 8 0 q w   e 6 8 $ $ yXnXyX$ nXL.L.w   e 6 iX0 tX0 nXMXq 0 vX",
"vXvXvX$ $ 0 $ bXw   e e e e e e e e e e e e e e e e e e 6 6 wX$ $ 0 nXnXnXw   e 6 8 $ vX0 vXbX$ MXL.pXw   e 6 nX0 vXq pXMXnX0 0 ",
"0 nXnXvX$ $ bX$ w   e 6 6 6 6 6 6 6 6 6 6 6 6 6 6 nX  e 6 6 $ nXnXvX0 q yXw   e 6 7 8 8 rX$ bXvXpXL.pXw   e 6 bX8 yXpXpXnXnX0 vX",
"w w w w w w w w w   e 6 q yX$ 8 7 6 $ $ wX7 8 8 bXw   e 6 8 rXnXyXuXq nX$ w   e 6 6 7 7 $ bXvXnXpXpXpXw   e nXw w w w w w w w w ",
"                    e 6 nX$ $ 7 6 7 $ $ wX7 7 8 bXw   e 6 bXrXnXyXuXpXyX$ w   e 6 7 7 8 8 bXnXMXpXL.pXw   e                     ",
"e e e e e e e e e e e 6 yX$ $ 7 5 7 wX$ bX7 8 bXvXw   e 6 $ yXuXyXuXiXnX$ w   e 6 8 7 bXrXtXnXpXpXL.iXw   e e e e e e e e e e e ",
"e 6 6 6 6 6 6 6 nX  e 6 $ vXvX7 7 7 8 bX8 7 8 vX$ w   e 6 nXuXnXiXMXiXq $ w   e 6 8 7 8 rX0 w pXpXpXiXw   e 6 6 6 6 6 6 6 6 nX  ",
"e 6 8 7 8 0 MXw w   e 6 vX$ eX7 6 8 rXvX$ $ vX$ bXw   e 6 uXuXyXq q w nX$ w   e 6 8 8 8 $ nXiXpXL.pXnXw   e 6 tXyXrX8 7 8 $ w   ",
"e 6 $ $ yXq pXmXw   e 6 $ eX7 6 7 $ q iXq nXnX0 $ w   e 6 0 tXbX0 uXnX$ 8 w   e 6 $ 8 bX$ uXiXL.pXMX0 w   e 6 0 $ 8 7 8 8 $ w   ",
"e 6 8 tXnXyXuXq w   e 6 $ $ eX8 $ 0 q pXMXnX0 $ $ w   e 6 yXrX$ bXnXyX$ 7 w   e 6 $ 8 $ yXuXaXkXpXnXnXw   e 6 $ rX$ 7 8 $ $ w   ",
"e 6 7 $ tX$ tXyXw   e 6 vX0 yXnX$ $ 0 nXnX0 $ $ vXw   e 6 rXwX8 rXtX$ $ 8 w   e 6 8 8 0 q pXaXpXpXnX0 w   e 6 $ $ 7 8 8 $ $ w   ",
"e 6 7 8 bX8 bX$ w   e 6 0 $ $ vXbX8 vXyX0 $ 8 bXq w   e 6 8 6 7 0 vX$ 0 $ w   e 6 7 8 0 uXiXpXpXq 0 bXw   e 6 bX8 7 7 8 vXq w   ",
"e 6 7 8 bX8 bXyXw   e 6 vXwX8 8 8 8 vX0 $ $ $ $ L.w   e 6 wX8 $ 0 tXbX$ 8 w   e 6 8 0 uXiXq nXyXvX$ $ w   e 6 $ 7 7 8 $ MXpXw   ",
"e 6 8 $ $ $ tXMXw   e 6 vX7 7 bX7 bX$ vX$ bX$ nXL.w   e 6 $ $ bX8 8 7 $ 8 w   e 6 $ nXiXq vX$ $ 0 $ nXw   e 6 8 8 $ 0 nXpXpXw   ",
"e 6 $ nXyX0 0 q w   e 6 bX8 bX0 0 0 q q vX0 yXpXL.w   e 6 eX7 7 8 8 8 bX8 w   e 6 uXnXq nX0 $ $ vX0 w w   e 6 $ $ q q MXq MXw   ",
"e nXw w w w w w w   e nXw w w w w w w w w w w w w w   e 6 8 7 8 $ vX$ 7 8 w   e 6 nXq nX0 8 7 $ vXaXL.w   e 6 0 $ q nXnXnXnXw   ",
"e                   e                                 e 6 $ 8 tXvX$ 8 $ yXw   e nXw w w w w w w w w w w   e nXw w w w w w w w   ",
"e e e e e e e e e e e e e e e e e e e e e e e e e e e e nXw w w w w w w w w   e                           e                     ",
"e 6 6 6 6 6 6 6 6 6 6 6 6 nX  e 6 6 6 6 6 6 6 6 nX  e e                       e e e e e e e e e e e e e e e e e e e e e e e e e ",
"e 6 8 7 8 8 7 7 7 8 8 $ yXw   e 6 $ 7 eX0 vX0 q w   e e e e e e e e e 6 6 6 6 6 6 6 6 nX  e 6 6 6 6 6 6 6 6 6 6 6 6 6 6 6 6 nX  ",
"e 6 8 7 7 7 7 8 8 7 7 $ eXw   e 6 wX7 eX0 0 vX0 w   e 6 6 6 6 6 nX  e 6 rXeX$ eXvXnXyXw   e 6 yXtXrX$ 8 bXbXrXrX0 nXnXyX0 vXw   ",
"e 6 8 7 8 wXwX8 7 7 7 bX8 w   e 6 wX7 8 yXnXyX$ w   e 6 $ $ eX8 w   e 6 rXwXwXwXtXyXyXw   e 6 tXbXbX8 8 $ rX0 rXtXyXtXyX0 tXw   ",
"e 6 8 8 bXbXeX8 8 6 6 8 8 w   e 6 7 wXtXuXvXvX$ w   e 6 tX$ $ 8 w   e 6 wX7 $ $ tXtXtXw   e 6 bX7 8 7 8 bXnXrXwXrXtX$ eXwXbXw   ",
"e 6 8 8 $ vX$ $ bX8 8 0 vXw   e 6 bXbX0 $ tX$ $ w   e 6 yX$ vX$ w   e 6 wXwXrX0 nXuXMXw   e 6 8 8 eXvXrXvXyXtXtXtXvX8 7 8 8 w   ",
"e 6 8 8 $ $ $ $ $ yX0 q nXw   e 6 tXbX$ $ tXvX$ w   e 6 $ rX$ 8 w   e 6 $ wXrX0 q iXiXw   e 6 $ nXtXrXvX$ uXyXnXnXvX8 bX8 $ w   ",
"e 6 bXbXbXbX7 bX0 q nXq nXw   e 6 nXtX$ $ vX$ yXw   e 6 8 8 7 7 w   e 6 $ wXtXnXuXuXnXw   e 6 nXnXyXtX$ vXnX0 $ 0 tXvX8 $ $ w   ",
"e 6 bX8 bX8 bX0 yXyXnXq nXw   e 6 0 tXvX0 uXmXnXw   e 6 7 6 8 $ w   e 6 $ $ tXyXyXq nXw   e 6 nXyXtXyX0 0 nXq nX0 $ vX8 $ $ w   ",
"e 6 bXbX$ $ tXyX0 $ yXyX$ w   e 6 nX$ 8 $ uXiXnXw   e 6 $ $ q q w   e 6 0 0 0 0 $ 0 vXw   e 6 nXtX$ rX$ $ q pXq $ $ $ $ $ 0 w   ",
"e 6 qX8 vX$ tX$ $ $ 0 vX$ w   e nXw w w w w w w w   e nXw w w w w   e 6 0 vXtXrX$ 0 pXw   e 6 bX8 6 8 8 tXq nXnX$ $ yXyXyXnXw   ",
"e 6 wXbX$ $ tXvX0 vXvXnXyXw   e                     e               e 6 0 wXeXbXvXiXL.w   e 6 wX6 7 eXrXtXyXyXyX0 vXq nXnXnXw   ",
"e 6 7 bX$ $ $ $ nXq pXL.q w   e e e e e e e e e e e e e e e e e e e e 6 rXrX8 $ $ q pXw   e 6 bX8 bXvX$ $ $ $ vXnXq pXpXL.MXw   ",
"e 6 7 qXbX7 8 nXpXpXL.pXnXw   e e 6 6 6 6 6 6 6 6 6 6 6 6 6 6 6 nX  e 6 vX0 $ eX8 yXnXw   e 6 8 wXwX7 bX8 8 $ nXw nXMXpXpXnXw   ",
"e 6 7 7 8 7 8 0 q nXMXnXbXw   e 6 8 8 bX8 8 8 $ 8 bXrXvXvX$ 8 $ w   e 6 tXbX8 7 bX$ q w   e 6 7 wX8 7 8 7 7 $ q nXnXnXnXyX$ w   ",
"e 6 7 bXrXvXvXnXnXq nX0 8 w   e 6 7 7 7 8 7 7 wX7 7 rX0 vX$ $ 0 w   e 6 bXbX8 8 8 $ q w   e 6 7 wX8 7 8 7 7 0 pXpXnXvX0 vX$ w   ",
"e 6 0 q nX$ 0 iXq nXvX$ bXw   e 6 8 7 8 bX8 8 bX7 6 $ tXbX8 $ vXw   e 6 tXtXbXbX$ bXyXw   e 6 8 vXbX8 8 7 bXnXL.L.nX0 $ vXvXw   ",
"e 6 0 rX$ rXvXnXnXyX0 vXyXw   e 6 9X6 8 rX$ 7 8 6 7 $ 8 8 7 $ 0 w   e 6 tXtXvXbX8 bXyXw   e 6 8 bXbX7 8 bXvXaXkXpXq $ $ $ vXw   ",
"e 6 yXbX8 bXnX0 yX0 vXq q w   e 6 6 7 $ tX$ 7 7 7 $ 0 vX$ $ $ vXw   e 6 $ $ $ bX$ vX0 w   e 6 7 8 7 8 8 bX$ pXL.MXvX$ bX$ $ w   ",
"e nXw w w w w w w w w w w w   e 6 7 8 $ yXtX8 bXbXnXq nXyX0 $ q w   e 6 8 $ $ rX$ bX8 w   e nXw w w w w w w w w w w w w w w w   ",
"e                             e 6 eXeXyXmX0 $ $ $ q nXnXyX0 vXpXw   e 6 7 $ vXrXbX8 8 w   e                                     ",
"e e e e e e e e e e e e e e e e 6 bXbX0 uXbXbX$ 0 nXq nX0 vXvXq w   e 6 8 $ eX8 $ $ $ w   e e e e e e e e e e e e e e e e e e e ",
"6 6 6 nX  e 6 6 6 6 6 6 6 nX  e 6 $ $ yX0 $ $ 0 vXvXyXvXvXyXnXq w   e 6 8 8 8 8 bX$ $ w   e 6 6 6 6 6 6 6 6 6 nX  e 6 6 6 6 6 6 ",
"eXbXnXiX  e 6 $ $ 8 rX$ bXw   e 6 yXyXyXyXvXyXq nXyXyXvXyXpXq yXw   e 6 7 $ vX0 vXyXyXw   e 6 $ 8 0X8 wX8 8 8 w   e 6 bX8 tXrXvX",
"8 $ q iX  e 6 $ $ eXrXvX0 w   e 6 tXtXyXyX0 vXnXnXnXq q nXL.pXnXw   e 6 vXnXyX$ vXnXq w   e 6 8 bX7 0X8 7 8 bXw   e 6 $ bX$ $ 8 ",
"bXvXq nX  e 6 $ bXwX$ yXiXw   e 6 tXtX$ 0 $ vXyX0 vXq nXpXpXnXnXw   e 6 nXuXyX$ 0 0 nXw   e 6 rX8 7 8 bXeX$ 0 w   e 6 $ bXbX8 bX",
"0 0 0 $   e nXw w w w w w w   e 8 bX$ $ $ 8 $ $ $ tX0 pXkXL.pXq w   e 6 nXnXyX0 $ yXyXw   e 6 0 $ 8 tXtX0 nXuXw   e 6 wXeXbX8 vX",
"nXvX$ 8   e                   e e nXw w w w w w w w w w w w w w w   e 6 yXnX0 vXvX0 $ w   e 6 $ wXbXyX0 0 nXiXw   e 6 8 8 8 $ 0 ",
"uXyX$ bX  e e e e e e e e e e e e                                   e nXw w w w w w w w   e nXw w w w w w w w w   e 6 bXbX$ yXuX",
"uXyX0 q   e 6 6 6 6 6 6 6 nX  e e e e e e e e e e e e e e e e e e e e                     e                       e 6 8 8 tXnXq ",
"nXnXiXpX  e 6 $ 8 7 8 7 8 w   e 6 6 6 6 6 6 6 6 6 6 6 6 6 6 6 nX  e e e e e e e e e e e e e e e e e e e e e e e e e 6 bX8 0 0 nX",
"0 q w iX  e 6 wXwX8 8 8 8 w   e 6 tXtXtXwX7 6 6 8 wXbX8 8 nXyXw   e 6 6 6 6 6 6 6 6 6 6 6 6 6 6 6 6 6 6 6 6 6 nX  e 6 bX7 $ vX0 ",
"nXpXw nX  e 6 7 8 7 7 8 $ w   e 6 rX$ bX7 7 6 7 bX8 8 8 8 vX$ w   e 6 7 6 7 7 7 7 7 7 eXyXnXtXyXyX0 0 yXyXvXbXw   e 6 7 5 6 8 vX",
"iXpXq vX  e 6 8 bXwX7 $ tXw   e 6 8 qX7 7 6 6 7 rXbX8 8 bX$ $ w   e 6 6 5 6 7 7 bX8 7 8 nXtX$ vX$ vX0 nXq yXvXw   e 6 7 7 8 $ vX",
"pXmXnX$   e 6 $ 0 vXbXtXvXw   e 6 8 7 7 7 7 6 $ 0 vXtXvX$ $ bXw   e 6 7 6 6 7 7 bX$ $ vX0 $ 8 eXrXvXq q 0 $ bXw   e 6 wX7 bX$ $ ",
"q q tX$   e 6 $ yX0 $ bXbXw   e 6 7 8 7 7 bX$ nXq 0 vX$ bXvXbXw   e 6 bXbX8 wX$ yXq uXuX$ $ bXbXtX0 q q $ $ 8 w   e 6 $ 6 8 vXuX",
"nXnXyX$   e 6 0 yX0 bX8 bXw   e 6 7 eX$ 0 pXq nXyX$ $ $ $ $ 8 w   e 6 $ bXbX$ 0 MXnXiXiXuXuX0 tXvX$ yX0 bX8 bXw   e 6 bX6 $ 0 nX",
"nXnXnXvX  e 6 q yXtX8 8 $ w   e 6 eXeX$ nXiXnX$ $ $ $ $ bX$ vXw   e 6 tX0 $ bXvXiXpXpXpXiXq 0 bX$ $ $ $ $ $ yXw   e 6 8 7 $ 0 nX",
"w w w w   e nXw w w w w w w   e nXw w w w w w w w w w w w w w w   e nXw w w w w w w w w w w w w w w w w w w w w   e nXw w w w w "
};
