/* XPM */
static char *cbzqd_2wmez[] = {
/* columns rows colors chars-per-pixel */
"64 64 256 2 ",
"   c black",
".  c #0000A8",
"X  c #00A800",
"o  c #00A8A8",
"O  c #A80000",
"+  c #A800A8",
"@  c #A85400",
"#  c gray66",
"$  c gray33",
"%  c #5454FC",
"&  c #54FC54",
"*  c #54FCFC",
"=  c #FC5454",
"-  c #FC54FC",
";  c #FCFC54",
":  c gray99",
">  c #ECECEC",
",  c gainsboro",
"<  c #D0D0D0",
"1  c #C0C0C0",
"2  c #B4B4B4",
"3  c gray66",
"4  c #989898",
"5  c gray55",
"6  c #7C7C7C",
"7  c gray44",
"8  c #646464",
"9  c gray33",
"0  c #484848",
"q  c gray22",
"w  c #2C2C2C",
"e  c #202020",
"r  c #FC0000",
"t  c #EC0000",
"y  c #E00000",
"u  c #D40000",
"i  c #C80000",
"p  c #BC0000",
"a  c #B00000",
"s  c #A40000",
"d  c #980000",
"f  c #880000",
"g  c #7C0000",
"h  c #700000",
"j  c #640000",
"k  c #580000",
"l  c #4C0000",
"z  c #400000",
"x  c #FCD8D8",
"c  c #FCB8B8",
"v  c #FC9C9C",
"b  c #FC7C7C",
"n  c #FC5C5C",
"m  c #FC4040",
"M  c #FC2020",
"N  c #FC0000",
"B  c #FCA85C",
"V  c #FC9840",
"C  c #FC8820",
"Z  c #FC7800",
"A  c #E46C00",
"S  c #CC6000",
"D  c #B45400",
"F  c #9C4C00",
"G  c #FCFCD8",
"H  c #FCFCB8",
"J  c #FCFC9C",
"K  c #FCFC7C",
"L  c #FCF85C",
"P  c #FCF440",
"I  c #FCF420",
"U  c #FCF400",
"Y  c #E4D800",
"T  c #CCC400",
"R  c #B4AC00",
"E  c #9C9C00",
"W  c #848400",
"Q  c #706C00",
"!  c #585400",
"~  c #404000",
"^  c #D0FC5C",
"/  c #C4FC40",
"(  c #B4FC20",
")  c #A0FC00",
"_  c #90E400",
"`  c #80CC00",
"'  c #74B400",
"]  c #609C00",
"[  c #D8FCD8",
"{  c #BCFCB8",
"}  c #9CFC9C",
"|  c #80FC7C",
" . c #60FC5C",
".. c #40FC40",
"X. c #20FC20",
"o. c #00FC00",
"O. c #00FC00",
"+. c #00EC00",
"@. c #00E000",
"#. c #00D400",
"$. c #04C800",
"%. c #04BC00",
"&. c #04B000",
"*. c #04A400",
"=. c #049800",
"-. c #048800",
";. c #047C00",
":. c #047000",
">. c #046400",
",. c #045800",
"<. c #044C00",
"1. c #044000",
"2. c #D8FCFC",
"3. c #B8FCFC",
"4. c #9CFCFC",
"5. c #7CFCF8",
"6. c #5CFCFC",
"7. c #40FCFC",
"8. c #20FCFC",
"9. c #00FCFC",
"0. c #00E4E4",
"q. c #00CCCC",
"w. c #00B4B4",
"e. c #009C9C",
"r. c #008484",
"t. c #007070",
"y. c #005858",
"u. c #004040",
"i. c #5CBCFC",
"p. c #40B0FC",
"a. c #20A8FC",
"s. c #009CFC",
"d. c #008CE4",
"f. c #007CCC",
"g. c #006CB4",
"h. c #005C9C",
"j. c #D8D8FC",
"k. c #B8BCFC",
"l. c #9C9CFC",
"z. c #7C80FC",
"x. c #5C60FC",
"c. c #4040FC",
"v. c #2024FC",
"b. c #0004FC",
"n. c #0000FC",
"m. c #0000EC",
"M. c #0000E0",
"N. c #0000D4",
"B. c #0000C8",
"V. c #0000BC",
"C. c #0000B0",
"Z. c #0000A4",
"A. c #000098",
"S. c #000088",
"D. c #00007C",
"F. c #000070",
"G. c #000064",
"H. c #000058",
"J. c #00004C",
"K. c #000040",
"L. c #282828",
"P. c #FCE034",
"I. c #FCD424",
"U. c #FCCC18",
"Y. c #FCC008",
"T. c #FCB400",
"R. c #B420FC",
"E. c #A800FC",
"W. c #9800E4",
"Q. c #8000CC",
"!. c #7400B4",
"~. c #60009C",
"^. c #500084",
"/. c #440070",
"(. c #340058",
"). c #280040",
"_. c #FCD8FC",
"`. c #FCB8FC",
"'. c #FC9CFC",
"]. c #FC7CFC",
"[. c #FC5CFC",
"{. c #FC40FC",
"}. c #FC20FC",
"|. c #FC00FC",
" X c #E000E4",
".X c #C800CC",
"XX c #B400B4",
"oX c #9C009C",
"OX c #840084",
"+X c #6C0070",
"@X c #580058",
"#X c #400040",
"$X c #FCE8DC",
"%X c #FCE0D0",
"&X c #FCD8C4",
"*X c #FCD4BC",
"=X c #FCCCB0",
"-X c #FCC4A4",
";X c #FCBC9C",
":X c #FCB890",
">X c #FCB080",
",X c #FCA470",
"<X c #FC9C60",
"1X c #F0945C",
"2X c #E88C58",
"3X c #DC8854",
"4X c #D08050",
"5X c #C87C4C",
"6X c #BC7848",
"7X c #B47044",
"8X c #A86840",
"9X c #A0643C",
"0X c #9C6038",
"qX c #905C34",
"wX c #885830",
"eX c #80502C",
"rX c #744C28",
"tX c #6C4824",
"yX c #5C4020",
"uX c #543C1C",
"iX c #483818",
"pX c #403018",
"aX c #382C14",
"sX c #28200C",
"dX c #600064",
"fX c #006464",
"gX c #006060",
"hX c #00001C",
"jX c #00002C",
"kX c #302410",
"lX c #480048",
"zX c #500050",
"xX c #000034",
"cX c gray11",
"vX c #4C4C4C",
"bX c gray36",
"nX c gray25",
"mX c gray19",
"MX c #343434",
"NX c #D8F4F4",
"BX c #B8E8E8",
"VX c #9CDCDC",
"CX c #74C8C8",
"ZX c #48C0C0",
"AX c #20B4B4",
"SX c #20B0B0",
"DX c #00A4A4",
"FX c #009898",
"GX c #008C8C",
"HX c #008484",
"JX c #007C7C",
"KX c #007878",
"LX c #007474",
"PX c #007070",
"IX c #006C6C",
"UX c #980088",
/* pixels */
"L.L.L.L.L.L.L.L.L.L.L.L.L.L.L.L.L.L.L.L.L.L.L.L.L.L.L.L.L.L.L.L.L.L.L.L.L.L.L.L.L.L.L.L.L.L.L.L.L.L.L.L.L.L.L.L.L.L.L.L.L.L.L.L.",
"eXeXeXeXeXeXeXyXuXuXuX  L.L.L.L.L.eX  e uXuXyXyXeXeXeXeXeXeXeXeXeXeXeXeXeXeXeXyXuXuXuX  cXeX  cXL.L.L.L.uXuXuXyXeXeXeXeXeXeXeXeX",
"yXtXtXyXuXyXtXtXkX    e L.L.eXeXeXyX  e kXtXtXeXtXyXtXtXyXtXyXeXeXtXuXyXuXtXuXuXuXuXkX  cXeXrXeXeX  cXL.L.L.kXuXuXuXuXyXtXuXyXtX",
"eXeXyXtXyXuXkX    e L.L.eXeXyXtXyXtXyX  e kXeXeXtXyXyXuXyXyXtXeXtXeXyXtXtXtXyXyXtXkX  cXeXtXtXyXuXrXeX  cXL.L.L.kXyXuXuXeXuXuXeX",
"eXeXuXuXyXkX  e L.L.eXeXtXtXeXyXuXuXyX  e kXeXtXtXyXtXyXyXtXyXtXeXtXtXyXyXtX0XyXtXkX  cXeXyXuXyXyXtXyXrXeX  cXL.L.kXtXtXeXtXtXeX",
"tXeXyXtXkX  e L.eXeXtXtXtXtXeXeXyXtXeXuX  e kXtXtXyXuXuXyXuXyXtXeXtXeX0XeXeXtXyXkX  cXeXyXtXyXyXtXyXtXeXuXrXeX  cXL.kXtXeXtXtXeX",
"tXeXtXkX  e L.eXtXeXtXtXyXtXtXeXyXtXtXeX  e kXuXtXtXtXyXuXuXyXuXuXtXtXeXeXtXtXtXkX  cXeXyXuXuXyXuXyXtXeXtXeXyXeX  cXL.kXeXeXtXeX",
"tXyXkX  e L.eXtXtXyXtXeXtXeXyXeXeXtXtXyXtX  e kXuXtXuXyXyXiXyXyXuXyXtXeXtXtXyXkX  cXeXtXtXtXyXuXuXyXuXuXtXtXeXyXeX  cXL.kXtXeXeX",
"sXkXkX  L.eXeXtXtXeXtXtXeXtXtXeXyXeXtXsXsX  e kXkXsXsXsXsXsXsXsXsXsXsXsXsXsXkXkX  cXyXuXtXuXyXyXiXyXyXuXyXtXyXuXeXeX  cXL.kXsXsX",
"e e e e L.kXtXyXtXuXyXtXtXtXeXtXsXsXsX      L.cX                                  cXcX  kXkXkXtXeXtXtXyXtXyXyXtXyXsX  cXL.cX    ",
"L.L.L.L.L.cXkXkXeXyXeXtXeXeXsXsX      cXbXbXbXbXbXbXbXbXbXbXbXbXbXbXbXbXbXbXbXbXbXbXbXL.cX    kXkXuXyXtXeXtXtXsXsX    cXL.cXcXcX",
"L.L.L.L.L.L.cX  kXkXtXeXsXsX    cXbXbXbX2 2 2 2 2 2 2 2 2 2 5 7 $ 2 2 2 2 2 2 2 2 2 2 1 5 5 L.cX  kXkXeXuXsXsX      cXcXL.L.L.L.",
"L.L.eXeXeX  L.L.L.  kXkX    cXbXbX2 2 2 2 2 2 2 2 2 2 2 2 7 fXy.u.$ 2 2 2 2 2 2 2 2 2 2 2 2 1 5 L.cX  kXkX      cXcXeXeXyXcXL.L.",
"L.L.eXyXyXeXeX  L.L.    cXbXbX2 2 2 2 2 2 2 2 2 2 2 2 5 l z t.u.cXz l 5 2 2 2 2 2 2 2 2 2 2 2 2 1 5 L.cX    cXcXeXeXyXtXkX  L.L.",
"L.eXyXeXeXyXtXtXsX  L.L.bX2 2 2 2 2 2 2 2 2 2 2 y.cX7 l h f JXu.cXf h l 7 y.y.2 2 2 2 2 2 2 2 2 2 2 1 L.L.L.eXeXyXyXyXyXyXkX  L.",
"L.eXyXyXtXtXyXuXkX  L.bX2 2 2 2 2 2 2 2 2 2 2 2 y.  cXf g j JXu.cXj g f y.  cX2 2 2 2 2 2 2 2 2 2 2 2 1 L.L.eXyXyXtXtXtXtXkX  L.",
"L.eXuXyXyXeXyXsX  cXbX2 2 2 2 2 2 2 2 2 2 2 2 2 bXy.  cXj f JXu.cXf j y.  cXbX2 2 2 2 2 2 2 2 2 2 2 2 2 1 L.cXeXtXeXeXtXuXkX  L.",
"L.eXtXyXyXyXuXkX  bX2 2 2 2 2 2 2 2 2 2 2 2 5 2 2 4 y.  cXf t.u.cXf y.  cX4 2 2 5 2 2 2 2 2 2 2 2 2 2 2 2 1 L.eXyXyXyXyXuXkX  L.",
"L.eXyXyXuXyXsX  cXbX2 2 2 2 2 2 2 2 2 4 5 2 nX4 2 2 2 y.              cX2 2 2 4 nX2 5 4 2 2 2 2 2 2 2 2 2 < L.cXyXyXtXyXuXkX  L.",
"L.kXsXsXsXsXkX  7 2 2 2 2 2 2 2 2 2 2 0 0 2 6 nX5 2 2 2 e cXz z z cX  2 2 2 5 nX6 2 0 0 2 2 2 2 2 2 2 2 2 2 1 L.kXsXsXsXsXkX  L.",
"L.e             7 2 2 2 2 2 2 2 2 2 2 bXbX$ $ 0 nXnXnX7 0 kXkXuXkXkX0 7 nXnXnX0 $ $ bXbX2 2 2 2 2 2 2 2 2 2 < L.cX            L.",
"L.L.e e e e e e 6 2 2 2 2 2 2 2 2 2 2 7 $ bXbXbXbX$ $ nXcX            nX$ $ bXbXbXbX$ 7 2 2 2 2 2 2 2 2 2 2 < L.cXcXcXcXcXcXcXL.",
"eXeXeXyXuXuXuXcX7 2 2 2 2 2 2 2 2 2 2 6 $ bXbXbX$ $ $ 0 cXg j g j g   0 $ $ $ bXbXbX$ 6 2 2 2 2 2 2 2 2 2 2 < L.uXuXuXyXeXeXeXeX",
"0X8X8X0X0X8XkX  bX2 2 2 2 2 2 4 6 2 2 $ $ $ 0 $ $ $ bX$ cXj g j g j   $ bX$ $ $ 0 $ $ $ 2 2 6 4 2 2 2 2 2 2 < L.iXtXuXtXeXtXtXuX",
"0X0X8X8X0X0XkX  bX2 2 2 2 7 $ $ $ 7 0 nX0 $ $ bXbXbX$ bX$ q q e cXcX7 bX$ bXbXbX$ $ 0 nX0 7 $ $ $ 7 2 2 2 2 < L.iXeXtXyXtXeXyXtX",
"8X8X0X8XeXtXkX  bX2 2 2 6 $ bXbX$ Q E W ! Q $ bXbX$ bX2 2 q bX0 bXcX2 2 bX$ bXbX$ Q ! W E Q $ bXbX$ 6 2 2 2 < L.iXeXyXyXyXyXyXyX",
"0X0X0X8X0XtXkX  bX2 2 2 $ bXbX$ Q Q T.E ! Q Q 0 $ 0 2 2 q $ bX0 bX$ cX2 2 0 $ 0 Q Q ! E T.Q Q $ bXbX$ 2 2 2 < L.iXyXyXuXtXyXeXtX",
"eX0XeX0XeXtXkX  bX2 2 2 bXbXbX$ R W E T.E Q ! Q bX2 2 q $ $ bX0 bX$ $ cX2 2 bXQ ! Q E T.E W R $ bXbXbX2 2 2 < L.iXyXtXeXeXtXtXeX",
"eXeXeXeXeXtXkX  bX2 2 2 $ bX$ uXsXz W W Q W W Q Q T P.! 0 $ bX0 bX$ 0 ! P.T Q Q W W Q W W z sXuX$ bX$ 2 2 2 < L.iXtXeXtXtX0XeXeX",
"yXyXtXtXtXeXkX  bX2 2 2 4 bX$ uXuX~ Q Q Q W E Q ~ W Q ~ e $ bX0 bX$ e ~ Q W ~ Q E W Q Q Q ~ uXuX$ bX4 2 2 2 < L.iXeX0X0X0X8XeX0X",
"sXsXsXsXkXkXkX  bX2 2 2 2 2 2 4 $ $ W W W W W Q f d d d d d f w f d d d d d f Q W W W W W $ $ 4 2 2 2 2 2 2 < L.kXkXkXsXsXsXsXsX",
"                7 2 2 2 2 2 2 2 2 E Q Q W W Q W d O O O O O f uXf O O O O O d W Q W W Q Q E 2 2 2 2 2 2 2 2 < L.cX              ",
"e e e e e e e e 6 2 2 E R T 2 2 T Q Q W Q Q W Q d O       i               O d Q W Q Q W Q Q T 2 2 T R E 2 2 < L.e e e e e e e e ",
"L.uXuXuXyXeXuXcX7 2 R T 2 2 T 2 R W W W W E W Q d O       y               O d Q W E W W W W R 2 T 2 2 T R 2 < L.uXuXuXyXeXuXcXL.",
"L.iXuXuXuXyXkX  bXR T 2 2 R 2 2 E W W W W E W ! d O       y               O d ! W E W W W W E 2 2 R 2 2 T R < L.iXeXeXeXeXkX  L.",
"L.iXuXtXuXiXkX  bX2 2 2 T T 2 2 W Q W R R W ! 2 d O       M       M y y i O d 2 ! W R R W Q W 2 2 T T 2 2 2 < L.iXeXyXeXeXkX  L.",
"L.iXtXtXtXuXkX  bX2 2 2 R 2 2 2 T T.E R T.E 2 2 f f                       f f 2 2 E T.R E T.T 2 2 2 R 2 2 2 < L.iXtX0X0X8XkX  L.",
"L.iXtXyXuXuXkX  bX2 2 T T 2 2 T T.T.T.W E T.R P.F uX                      s F P.R T.E W T.T.T.T 2 2 T T 2 2 < L.iXtX0XeX0XkX  L.",
"L.iXyXyXyXyXkX  bX2 2 R 2 2 R T.T.T.R W Q Q T T.f f                       f f T.T Q Q W R T.T.T.R 2 2 R 2 2 < L.iXeXtX0X0XkX  L.",
"L.iXtXuXiXuXkX  bX2 2 2 R R T T.T.T.W 2 2 2 2 E d O i y y M       M       O d E 2 2 2 2 W T.T.T.T R R 2 2 2 < L.iXeXtX0X0XkX  L.",
"L.iXyXyXuXuXkX  bX2 2 2 2 T.R R T.T.R 2 2 2 2 2 d O               y       O d 2 2 2 2 2 R T.T.R R T.2 2 2 2 < L.iXtXtXeXeXkX  L.",
"L.kXsXsXsXsXkX  bX2 2 2 2 T.T.E R T.T.R 2 2 2 2 d O               y       O d 2 2 2 2 R T.T.R E T.T.2 2 2 2 < L.kXsXsXsXsXkX  L.",
"L.cX            7 2 2 T.T.T.T.T.E T T.T.R 2 2 2 d O               i       O d 2 2 2 R T.T.T E T.T.T.T.T.2 2 < L.cX            L.",
"L.cXcXcXcXcXcXe 6 2 2 E T.T.T T 2 2 T.T.R 2 2 2 d O O O O O f   f O O O O O d 2 2 2 R T.T.2 2 T T T.T.E 2 2 < L.cXcXcXcXcXcXe L.",
"eXeXeXyXuXuXuXcX7 2 T.R T T 2 2 2 2 T T.R 2 2 2 f d d d d d f   f d d d d d f 2 2 2 R T.T 2 2 2 2 T T R T.2 < L.uXuXuXyXeXeXeXeX",
"uXuXuXuXyXuXkX  bX2 T.T 2 2 2 2 2 2 W T.E 2 2 2 # mX0 0 mXcXnXnXnXcXmX0 0 mX# 2 2 2 E T.W 2 2 2 2 2 2 T T.2 < L.iXeXtXeXeX0XeXeX",
"uXuXeXyXuXyXkX  bXnXbXT T 2 2 2 2 2 2 R T 2 2 2 2 0 bXbX0 mX$ $ $ mX0 bXbX0 2 2 2 2 T R 2 2 2 2 2 2 T T bXnX< L.iXtXtXeX0X8X0X0X",
"tXyXtXeXtXuXkX  bX4 ~ W W ~ T 2 2 2 2 T R Y 2 2 2 0 bXbX0 mX$ $ $ mX0 bXbX0 2 2 2 Y R T 2 2 2 2 T ~ W W ~ 4 < L.iXtXeXtX8X8X7XeX",
"yXtXyXeXtXyXkX  bXW E E Q W T.T.T.T.T.E W R W Q T.R $ bX0 mX$ $ $ mX0 bX$ R T.Q W R W E T.T.T.T.T.W Q E E W < L.iXeXeXeX8X8X8X8X",
"tXtXyXtXtXeXkX  bX2 2 2 I.P.T T T T T R R R W E T.T.E $ 0 mX$ $ $ mX0 $ E T.T.E W R R R T T T T T P.I.2 2 2 < L.iX0X0X0XeX8X8X7X",
"yXeXtXtXeX8XkX  bX2 2 2 2 2 2 2 2 T T T T T T T.T.T.T.R mXmX0 0 0 mXmXR T.T.T.T.T T T T T T 2 2 2 2 2 2 2 2 < L.iXeXeX0XeXeX0X0X",
"tX0X0XeXeXeXkX  bX2 2 2 2 2 2 2 2 2 2 2 T T T T T T T T T R W W W R T T T T T T T T T 2 2 2 2 2 2 2 2 2 2 2 < L.iXeXyXtXeXtX0X8X",
"sXsXsXsXkXkXkX  bX2 2 2 2 2 2 2 2 2 2 2 2 2 2 T T T T T T T.T.T.T.T.T T T T T T 2 2 2 2 2 2 2 2 2 2 2 2 2 2 < L.kXkXkXsXsXsXsXsX",
"                7 1 < < < < < < < < < < < < < < < < < < < < < < < < < < < < < < < < < < < < < < < < < < < < < L.cX              ",
"e e e e e e e e L.L.L.L.L.L.L.L.L.L.L.L.L.L.L.L.L.L.L.L.L.L.L.L.L.L.L.L.L.L.L.L.L.L.L.L.L.L.L.L.L.L.L.L.L.L.L.L.e e e e e e e e ",
"L.uXuXuXyXeXeXeXeXeXeXeXeXeXeXeXeXeXeXeXeXeXeXeXeXeXyXuXuXuXcXL.L.uXuXuXyXeXeXeXeXeXeXeXeXeXeXeXeXeXeXeXeXeXeXeXeXeXyXuXuXuXcXL.",
"L.iXtXtXeXtXeXeX0XeXeXeX0XeXtXtXeXeXeXtXuXuXyXuXtXtXtXeXeXkX  L.L.iXeXtXeXyXtXtXtX0X0X0XeX0XeXtXtXeXeXtXtXtXyXuXtXeXeXtX0XkX  L.",
"L.iXtXtXtXeXyX0X0X8X8X0XtXyXtXtXtXeXtXeXtXuXyXtXtXeXtX0XeXkX  L.L.iXuXtXyXyXyXtXtXtX0XeX0XeXeXeXtXeXyXtXtXtXyXyXyXyXtXeX0XkX  L.",
"L.iXyXuXyXeXtX0X0X0X0X0XtXeXyXuXyXtXyXtXeXyXuXeXeXeXtX0XeXkX  L.L.iXuXtXtXyXtXyXtXyXeXtXeXeXtXtXtXyXuXyXyXyXtXyXeXtXtXeXtXkX  L.",
"L.iXuXiXyXuX0XeX0X0X8X0XtXyXuXyXuXtXtXtXtXeXyXtXeXeX0X0XtXkX  L.L.iXtXtXyXyXuXuXuXuXtXtXeXeXtXyXyXiXtXuXtXeXtXtXeXeXtXeXeXkX  L.",
"L.iXyXuXyXtXtXeXeX0X0X8XeXtXyXiXuXyXyXeXtXeXtXtXeXeXeXeXtXkX  L.L.iXuXyXtXyXuXuXuXuXuXuXeXtXeXtXyXuXyXyXuXeXeXeX0X0XtXyXuXkX  L.",
"L.iXyXuXuXyXtXtXeXeXtXeXtXtXtXyXuXyXyXeXtXeXeXtXtXeXtXeXeXkX  L.L.iXyXuXuXuXyXiXuXyXuXuXtXyXeXeXtXtXuXtXyXtX0XeXeXtXeXeXuXkX  L.",
"L.kXkXkXsXsXsXsXsXsXsXsXsXsXsXsXsXsXsXsXsXsXsXsXsXsXsXkXkXkX  L.L.kXkXkXsXsXsXsXsXsXsXsXsXsXsXsXsXsXsXsXsXsXsXsXsXsXsXkXkXkX  L.",
"L.cX                                                          L.L.cX                                                          L."
};
