/* XPM */
static char *cbwik_2iomm[] = {
/* columns rows colors chars-per-pixel */
"64 64 256 2 ",
"   c black",
".  c #0000A8",
"X  c #00A800",
"o  c #00A8A8",
"O  c #A80000",
"+  c #A800A8",
"@  c #A85400",
"#  c gray66",
"$  c gray33",
"%  c #5454FC",
"&  c #54FC54",
"*  c #54FCFC",
"=  c #FC5454",
"-  c #FC54FC",
";  c #FCFC54",
":  c gray99",
">  c #ECECEC",
",  c gainsboro",
"<  c #D0D0D0",
"1  c #C0C0C0",
"2  c #B4B4B4",
"3  c gray66",
"4  c #989898",
"5  c gray55",
"6  c #7C7C7C",
"7  c gray44",
"8  c #646464",
"9  c gray33",
"0  c #484848",
"q  c gray22",
"w  c #2C2C2C",
"e  c #202020",
"r  c #FC0000",
"t  c #EC0000",
"y  c #E00000",
"u  c #D40000",
"i  c #C80000",
"p  c #BC0000",
"a  c #B00000",
"s  c #A40000",
"d  c #980000",
"f  c #880000",
"g  c #7C0000",
"h  c #700000",
"j  c #640000",
"k  c #580000",
"l  c #4C0000",
"z  c #400000",
"x  c #FCD8D8",
"c  c #FCB8B8",
"v  c #FC9C9C",
"b  c #FC7C7C",
"n  c #FC5C5C",
"m  c #FC4040",
"M  c #FC2020",
"N  c #FC0000",
"B  c #FCA85C",
"V  c #FC9840",
"C  c #FC8820",
"Z  c #FC7800",
"A  c #E46C00",
"S  c #CC6000",
"D  c #B45400",
"F  c #9C4C00",
"G  c #FCFCD8",
"H  c #FCFCB8",
"J  c #FCFC9C",
"K  c #FCFC7C",
"L  c #FCF85C",
"P  c #FCF440",
"I  c #FCF420",
"U  c #FCF400",
"Y  c #E4D800",
"T  c #CCC400",
"R  c #B4AC00",
"E  c #9C9C00",
"W  c #848400",
"Q  c #706C00",
"!  c #585400",
"~  c #404000",
"^  c #D0FC5C",
"/  c #C4FC40",
"(  c #B4FC20",
")  c #A0FC00",
"_  c #90E400",
"`  c #80CC00",
"'  c #74B400",
"]  c #609C00",
"[  c #D8FCD8",
"{  c #BCFCB8",
"}  c #9CFC9C",
"|  c #80FC7C",
" . c #60FC5C",
".. c #40FC40",
"X. c #20FC20",
"o. c #00FC00",
"O. c #00FC00",
"+. c #00EC00",
"@. c #00E000",
"#. c #00D400",
"$. c #04C800",
"%. c #04BC00",
"&. c #04B000",
"*. c #04A400",
"=. c #049800",
"-. c #048800",
";. c #047C00",
":. c #047000",
">. c #046400",
",. c #045800",
"<. c #044C00",
"1. c #044000",
"2. c #D8FCFC",
"3. c #B8FCFC",
"4. c #9CFCFC",
"5. c #7CFCF8",
"6. c #5CFCFC",
"7. c #40FCFC",
"8. c #20FCFC",
"9. c #00FCFC",
"0. c #00E4E4",
"q. c #00CCCC",
"w. c #00B4B4",
"e. c #009C9C",
"r. c #008484",
"t. c #007070",
"y. c #005858",
"u. c #004040",
"i. c #5CBCFC",
"p. c #40B0FC",
"a. c #20A8FC",
"s. c #009CFC",
"d. c #008CE4",
"f. c #007CCC",
"g. c #006CB4",
"h. c #005C9C",
"j. c #D8D8FC",
"k. c #B8BCFC",
"l. c #9C9CFC",
"z. c #7C80FC",
"x. c #5C60FC",
"c. c #4040FC",
"v. c #2024FC",
"b. c #0004FC",
"n. c #0000FC",
"m. c #0000EC",
"M. c #0000E0",
"N. c #0000D4",
"B. c #0000C8",
"V. c #0000BC",
"C. c #0000B0",
"Z. c #0000A4",
"A. c #000098",
"S. c #000088",
"D. c #00007C",
"F. c #000070",
"G. c #000064",
"H. c #000058",
"J. c #00004C",
"K. c #000040",
"L. c #282828",
"P. c #FCE034",
"I. c #FCD424",
"U. c #FCCC18",
"Y. c #FCC008",
"T. c #FCB400",
"R. c #B420FC",
"E. c #A800FC",
"W. c #9800E4",
"Q. c #8000CC",
"!. c #7400B4",
"~. c #60009C",
"^. c #500084",
"/. c #440070",
"(. c #340058",
"). c #280040",
"_. c #FCD8FC",
"`. c #FCB8FC",
"'. c #FC9CFC",
"]. c #FC7CFC",
"[. c #FC5CFC",
"{. c #FC40FC",
"}. c #FC20FC",
"|. c #FC00FC",
" X c #E000E4",
".X c #C800CC",
"XX c #B400B4",
"oX c #9C009C",
"OX c #840084",
"+X c #6C0070",
"@X c #580058",
"#X c #400040",
"$X c #FCE8DC",
"%X c #FCE0D0",
"&X c #FCD8C4",
"*X c #FCD4BC",
"=X c #FCCCB0",
"-X c #FCC4A4",
";X c #FCBC9C",
":X c #FCB890",
">X c #FCB080",
",X c #FCA470",
"<X c #FC9C60",
"1X c #F0945C",
"2X c #E88C58",
"3X c #DC8854",
"4X c #D08050",
"5X c #C87C4C",
"6X c #BC7848",
"7X c #B47044",
"8X c #A86840",
"9X c #A0643C",
"0X c #9C6038",
"qX c #905C34",
"wX c #885830",
"eX c #80502C",
"rX c #744C28",
"tX c #6C4824",
"yX c #5C4020",
"uX c #543C1C",
"iX c #483818",
"pX c #403018",
"aX c #382C14",
"sX c #28200C",
"dX c #600064",
"fX c #006464",
"gX c #006060",
"hX c #00001C",
"jX c #00002C",
"kX c #302410",
"lX c #480048",
"zX c #500050",
"xX c #000034",
"cX c gray11",
"vX c #4C4C4C",
"bX c gray36",
"nX c gray25",
"mX c gray19",
"MX c #343434",
"NX c #D8F4F4",
"BX c #B8E8E8",
"VX c #9CDCDC",
"CX c #74C8C8",
"ZX c #48C0C0",
"AX c #20B4B4",
"SX c #20B0B0",
"DX c #00A4A4",
"FX c #009898",
"GX c #008C8C",
"HX c #008484",
"JX c #007C7C",
"KX c #007878",
"LX c #007474",
"PX c #007070",
"IX c #006C6C",
"UX c #980088",
/* pixels */
"w w w w w w w w w w w w w w w w w w w w w w w w w w w w w w w w w w w w w w w w w w w w w w w w w w w w w w w w w w w w w w w w ",
"5 5 5 5 5 5 5 6 7 7 $ cXL.L.L.L.L.5 cXL.8 7 7 6 5 5 5 5 5 5 5 5 5 5 5 5 5 5 6 7 7 8 bXcXL.5 cXL.L.L.L.L.8 7 7 6 5 5 5 5 5 5 5 5 ",
"6 6 6 6 7 6 6 6 $ cXcXL.L.L.5 5 5 7 cXL.$ 6 6 6 6 6 6 6 6 6 6 5 5 6 7 6 7 6 6 8 8 7 bXcXL.5 6 5 5 cXL.L.cXcX$ 7 7 6 8 7 7 6 6 6 ",
"5 5 6 6 6 7 $ cXcXL.L.L.5 5 6 6 6 6 8 cXL.$ 6 5 6 6 6 7 6 6 6 5 6 5 6 6 6 6 6 6 7 bXcXL.5 7 7 7 7 5 5 cXL.L.cXcX$ 7 8 6 7 6 6 5 ",
"5 5 7 7 6 $ cXL.L.L.5 5 6 6 4 5 6 5 6 cXL.$ 6 6 6 6 6 6 6 6 6 6 5 6 6 6 6 6 6 4 6 bXcXL.5 7 8 8 8 6 6 5 5 cXL.L.cX$ 6 6 5 6 5 5 ",
"6 5 6 6 $ cXL.L.5 5 6 6 8 6 6 8 5 6 6 7 cXL.$ 6 6 6 7 7 6 7 6 6 5 6 5 4 5 5 6 6 bXcXL.5 8 7 8 8 7 6 6 7 7 5 5 cXL.cX$ 6 6 6 5 4 ",
"6 5 6 $ cXL.L.5 6 5 6 5 6 8 6 6 6 6 5 5 cXL.$ 6 6 6 6 6 7 8 6 7 7 6 6 5 5 6 6 6 bXcXL.5 7 8 8 7 bX7 6 7 6 7 7 5 cXL.cX$ 5 6 5 5 ",
"6 6 $ cXcXL.5 6 6 6 6 6 6 6 7 6 6 5 5 5 5 cXL.$ 7 6 7 6 6 8 6 6 7 6 6 5 6 6 5 bXcXL.5 bX8 7 7 6 6 6 6 6 6 6 6 6 5 cXL.cX$ 5 5 5 ",
"q q q cXL.5 7 5 6 7 6 6 6 5 6 6 6 5 6 q nXcXL.$ $ $ vX0 nXnXq q q nXnX0 vX$ $ bXcXL.$ $ 6 7 6 6 6 6 6 7 6 6 6 5 4 5 cXL.cXnXq q ",
"cXcXcXcXL.$ 5 6 6 7 6 6 6 6 6 7 q q q cXcXcXcXcXcXcXcXcXcXcXcXcXcXcXcXcXcXcXcXcXcXL.cXcX$ vXvX6 6 6 6 6 6 4 4 4 4 vXcXL.L.cXcXcX",
"L.L.L.L.L.cX$ $ 5 6 6 6 6 6 q q cXcXcXL.6 6 6 6 6 6 6 6 6 6 6 6 6 6 6 6 6 6 6 6 6 6 6 w cXcXcX$ vX6 6 5 5 5 4 vXvXcXL.L.L.L.L.L.",
"w w w w L.L.cXcX$ $ 7 6 0 0 cXcXL.6 6 6 , , , , , , , , , , 1 5 7 , , , , , , , , , , > 2 2 w cXcX$ vX5 4 vXvXcXcXL.L.L.L.w w w ",
"w w 8 6 5 L.L.L.cXcXvXvXcXcXL.6 6 , , , , , , , , , , , , 5 r.LXy.7 , , , , , , , , , , , , > 2 w cXcX$ vXcXcXL.L.L.5 6 8 cXL.w ",
"w w 8 6 6 5 5 L.L.L.cXcXL.6 6 , , , , , , , , , , , , # j l GXfXu.l j # , , , , , , , , , , , , > 2 w cXcXcXL.L.5 5 6 5 bXcXL.w ",
"w 8 6 6 6 6 6 6 8 cXL.L.6 , , , , , , , , , , , LXu.5 j f s e.fXu.s f j 5 LXLX, , , , , , , , , , , > w L.L.8 5 6 6 6 6 6 bXe w ",
"w 8 6 6 6 6 6 7 $ cXL.6 , , , , , , , , , , , , LXcXu.s d g e.fXu.g d s LXcXu., , , , , , , , , , , , > w w 8 6 6 5 5 5 5 bXe w ",
"w 8 7 6 6 6 6 $ cXL.6 , , , , , , , , , , , , , 6 LXcXu.g s e.fXu.s g LXcXu.6 , , , , , , , , , , , , , > w cX8 5 4 4 5 6 bXe w ",
"w 8 6 6 6 6 7 $ cX6 , , , , , , , , , , , , 2 , , 2 LXcXu.s GXfXu.s LXcXu.2 , , 2 , , , , , , , , , , , , > w 8 6 6 6 6 7 bXe w ",
"w 8 6 6 7 6 $ cXL.6 , , , , , , , , , 1 2 , bX1 , , , LX  cX  cX  cX  u., , , 1 bX, 2 1 , , , , , , , , , : w cX8 6 5 6 7 bXe w ",
"w $ $ vXvX$ $ cX5 , , , , , , , , , , 8 8 1 4 bX2 , , , nXMXz z z MXe , , , 2 bX4 1 8 8 , , , , , , , , , , > w $ $ vXvX$ $ e w ",
"w cXcXcXcXcXcXcX5 , , , , , , , , , , 6 6 7 7 8 bXbXbX5 8 yXyXrXyXyX8 5 bXbXbX8 7 7 6 6 , , , , , , , , , , : w cXcXcXcXcXcXcXw ",
"w L.L.L.L.L.L.L.4 , , , , , , , , , , 5 7 6 6 6 6 7 7 bXMXe e e e e   bX7 7 6 6 6 6 7 5 , , , , , , , , , , : w L.L.L.L.L.L.L.w ",
"5 5 5 6 7 7 8 L.5 , , , , , , , , , , 4 7 6 6 6 7 7 7 8 MXd g d g d   8 7 7 7 6 6 6 7 4 , , , , , , , , , , : w 8 7 7 6 5 5 5 5 ",
"6 6 6 7 7 6 bXe 6 , , , , , , 2 4 , , 7 7 7 8 7 7 7 6 7 MXg d g d g   7 6 7 7 7 8 7 7 7 , , 4 2 , , , , , , : w 8 4 # 4 4 5 4 5 ",
"6 6 6 6 6 6 bXe 6 , , , , 5 7 7 7 5 8 bX8 7 7 6 6 6 7 6 7 $ $ nXMXMX5 6 7 6 6 6 7 7 8 bX8 5 7 7 7 5 , , , , : w 8 5 4 4 5 5 6 4 ",
"6 6 6 6 6 6 bXe 6 , , , 4 7 6 6 7 W R E Q W 7 6 6 7 6 , , $ 6 8 6 MX, , 6 7 6 6 7 W Q E R W 7 6 6 7 4 , , , : w 8 5 5 5 5 5 6 4 ",
"6 6 5 6 5 6 bXe 6 , , , 7 6 6 7 W W Y.R Q W W 8 7 8 , , $ 7 6 8 6 7 MX, , 8 7 8 W W Q R Y.W W 7 6 6 7 , , , : w 8 6 5 4 4 5 5 5 ",
"5 5 5 6 6 5 bXe 6 , , , 6 6 6 7 T E R T.R W Q W 6 , , $ 7 7 6 8 6 7 7 MX, , 6 W Q W R T.R E T 7 6 6 6 , , , : w 8 5 6 5 5 5 5 4 ",
"6 5 5 # 4 6 bXe 6 , , , 7 6 7 rXpXl E E W E E W W P.L Q 8 7 6 8 6 7 8 Q L P.W W E E W E E l pXrX7 6 7 , , , : w 8 6 6 5 5 6 7 6 ",
"4 4 4 5 5 5 bXe 6 , , , 2 6 7 rXrX! W W W E R W ! E W ! nX7 6 8 6 7 nX! W E ! W R E W W W ! rXrX7 6 2 , , , : w 8 5 5 6 6 5 4 5 ",
"nXnXnX0 vX$ $ e 6 , , , , , , 2 7 7 E E E E E W s a a a a a s 0 s a a a a a s W E E E E E 7 7 2 , , , , , , : w $ $ vX0 nXnXnXq ",
"cXcXcXcXcXcXcXcX5 , , , , , , , , R W W E E W E a i i i i i s rXs i i i i i a E W E E W W R , , , , , , , , : w cXcXcXcXcXcXcXcX",
"L.L.L.L.L.L.L.L.4 , , R T Y < , Y W W E W W E W a i L.L.L.y L.L.L.L.L.L.L.i a W E W W E W W Y , < Y T R , , : w L.L.L.L.L.L.L.L.",
"w 8 7 6 6 7 8 L.5 , T P., < Y , T E E E E R E W a i L.cX  r L.cXcXcXcXcX  i a W E R E E E E T , Y < , P.T , : w 8 7 6 6 7 8 L.w ",
"w 8 7 7 5 6 bXe 6 T Y , , T , , R E E E E R E Q a i L.cX  M L.cX          i a Q E R E E E E R , , T , , Y T : w 8 5 6 6 6 bXe w ",
"w 8 7 6 6 6 bXe 6 , , , Y Y , , E W E T T E Q , a i L.cX  m L.cX  m M r y i a , Q E T T E W E , , Y Y , , , : w 8 6 6 6 6 bXe w ",
"w 8 6 6 5 7 bXe 6 , , , T , , , I.Y.R T Y.R 1 , s s L.cX  L.L.cX  L.L.L.L.s s , 1 R Y.T R Y.I., , , T , , , : w 8 4 6 6 6 bXe w ",
"w 8 6 6 5 7 bXe 6 , , Y Y , , U.Y.Y.Y.E R Y.T L F eXL.cXcXcXcXcXcXcXcXcX  p F L T Y.R E Y.Y.Y.U., , Y Y , , : w 8 4 7 7 7 bXe w ",
"w 8 6 6 5 6 bXe 6 , , T , , J Y.Y.Y.T E W W I.Y.s s L.        cX      cX  s s Y.I.W W E T Y.Y.Y.J , , T , , : w 8 6 6 7 8 bXe w ",
"w 8 6 7 4 6 bXe 6 , , , T T Y Y.Y.Y.E j., , , R a i y r M m L.cX  m L.cX  i a R , , , j.E Y.Y.Y.Y T T , , , : w 8 6 5 5 6 bXe w ",
"w 8 6 6 6 6 bXe 6 , , , , T.T T Y.Y.T , , , , < a i L.L.L.L.L.cX  M L.cX  i a < , , , , T Y.Y.T T T., , , , : w 8 6 6 5 6 bXe w ",
"w $ $ vXvX$ $ e 6 , , , , Y.Y.R T Y.Y.T , , , , a i L.cXcXcXcXcX  r L.cX  i a , , , , T Y.Y.T R Y.Y., , , , : w $ vXvXvX$ $ e w ",
"w cXcXcXcXcXcXcX5 , , T.Y.Y.Y.Y.R Y Y.Y.T , , , a i L.            y L.cX  i a , , , T Y.Y.Y R Y.Y.Y.Y.T., , : w cXcXcXcXcXcXcXw ",
"w L.L.L.L.L.L.L.4 , < R Y.Y.I.P., < Y.Y.T , , , a i i i i i s cXs i i i i i a , , , T Y.Y.< , P.I.Y.Y.R < , : w L.L.L.L.L.L.L.w ",
"5 5 5 6 7 7 8 L.5 , Y.T P.P., , , , Y Y.T , , , s a a a a a s   s a a a a a s , , , T Y.Y , , , , P.P.T Y., : w 8 7 7 6 5 5 5 5 ",
"6 6 6 7 7 6 bXe 6 , T.Y , , , , , $XE Y.R , , , 1 vX8 8 vXq bXbXbXq vX8 8 vX1 , , , R Y.E $X, , , , , Y T., : w 8 6 6 6 6 6 6 5 ",
"6 6 6 6 6 6 bXe 6 bX6 U.P., , , , , 1 T Y , , , < 8 6 6 8 vX7 7 7 vX8 6 6 8 < , , , Y T 1 , , , , , P.U.6 bX: w 8 6 7 7 6 6 6 4 ",
"6 6 6 6 6 6 bXe 6 2 ! E E ! P., , , , P.T ^ , , < 8 6 6 8 vX7 7 7 vX8 6 6 8 < , , ^ T P., , , , P.! E E ! 2 : w 8 6 6 8 8 6 6 5 ",
"6 6 5 6 5 6 bXe 6 E R R W E Y.Y.Y.T.T.R E T E W T.T 7 6 8 vX7 7 7 vX8 6 7 T T.W E T E R T.T.Y.Y.Y.E W R R E : w 8 7 8 7 7 7 6 6 ",
"5 5 5 6 6 5 bXe 6 , , , P L P.P.P.U.U.T T T E R T.T.R 7 8 vX7 7 7 vX8 7 R T.T.R E T T T U.U.P.P.P.L P , , , : w 8 7 8 6 6 6 6 5 ",
"6 5 5 # 4 6 bXe 6 , , , , , , , , P.P.P.U.U.U.Y.Y.Y.Y.T vXvX8 8 8 vXvXT Y.Y.Y.Y.U.U.U.P.P.P., , , , , , , , : w 8 6 6 6 6 6 5 6 ",
"4 4 4 5 5 5 bXe 6 , , , , , , , , , , , P.P.P.U.U.U.U.U.U.T E E E T U.U.U.U.U.U.P.P.P., , , , , , , , , , , : w 8 8 6 8 bX6 6 5 ",
"nXnXnX0 vX$ $ e 6 , , , , , , , , , , , , , , P.P.P.P.P.U.Y.Y.Y.Y.Y.U.P.P.P.P.P., , , , , , , , , , , , , , : w $ $ vX0 nXnXnXq ",
"cXcXcXcXcXcXcXe 5 > : : : : : : : : : : : : : : : : : : : : : : : : : : : : : : : : : : : : : : : : : : : : : w cXcXcXcXcXcXcXcX",
"L.L.L.L.L.L.L.L.w w w w w w w w w w w w w w w w w w w w w w w w w w w w w w w w w w w w w w w w w w w w w w w w L.L.L.L.L.L.L.L.",
"w 8 7 7 6 5 5 5 5 5 5 5 5 5 5 5 5 5 5 5 5 5 5 5 5 5 6 7 7 8 L.w w 8 7 7 6 5 5 5 5 5 5 5 5 5 5 5 5 5 5 5 5 5 5 5 5 5 6 7 7 8 L.w ",
"w 8 6 6 5 6 5 5 4 5 5 5 4 5 6 6 5 5 5 6 7 8 6 7 6 6 6 5 5 bXe w w 8 5 6 5 6 6 6 6 4 4 4 5 4 5 6 6 5 5 6 6 6 6 7 6 5 5 6 4 bXe w ",
"w 8 6 6 6 5 6 4 4 # # 4 6 6 6 6 6 5 6 5 6 7 6 6 6 5 6 4 5 bXe w w 8 7 6 6 6 6 6 6 6 4 5 4 5 5 5 6 5 6 6 6 6 6 6 6 6 6 5 4 bXe w ",
"w 8 6 7 6 5 6 4 4 4 4 4 6 5 6 7 6 6 6 6 5 6 7 5 5 5 6 4 5 bXe w w 8 8 6 6 6 6 6 6 6 5 6 5 5 6 6 6 6 7 6 6 6 6 6 5 6 6 5 6 bXe w ",
"w 8 8 8 6 8 4 5 4 4 # 4 6 6 7 6 7 6 6 6 6 5 6 6 5 5 4 4 6 bXe w w 8 6 6 6 6 7 7 7 7 6 6 5 5 6 6 6 8 6 7 6 5 6 6 5 5 6 5 5 bXe w ",
"w 8 6 8 6 6 6 5 5 4 4 # 5 6 6 8 8 6 6 5 6 5 6 6 5 5 5 5 6 bXe w w 8 8 6 6 6 8 7 7 7 7 7 5 6 5 6 6 8 6 6 7 5 5 5 4 4 6 6 7 bXe w ",
"w 8 6 7 8 6 6 6 5 5 6 5 6 6 6 6 7 6 6 5 6 5 5 6 6 5 6 5 5 bXe w w 8 6 8 7 8 6 8 7 6 8 7 6 6 5 5 6 6 7 6 6 6 4 5 5 6 5 5 7 bXe w ",
"w $ $ $ vX0 nXnXnXq q q q q q q q q q q q nXnXnXnX0 vX$ $ $ e w w $ $ $ vX0 nXnXnXq q q q q q q q q q q q nXnXnXnX0 vX$ $ $ e w ",
"w cXcXcXcXcXcXcXcXcXcXcXcXcXcXcXcXcXcXcXcXcXcXcXcXcXcXcXcXcXcXw w cXcXcXcXcXcXcXcXcXcXcXcXcXcXcXcXcXcXcXcXcXcXcXcXcXcXcXcXcXcXw "
};
