/* XPM */
static char *cbzzf_lyc2d[] = {
/* columns rows colors chars-per-pixel */
"64 64 256 2 ",
"   c black",
".  c #0000A8",
"X  c #00A800",
"o  c #00A8A8",
"O  c #A80000",
"+  c #A800A8",
"@  c #A85400",
"#  c gray66",
"$  c gray33",
"%  c #5454FC",
"&  c #54FC54",
"*  c #54FCFC",
"=  c #FC5454",
"-  c #FC54FC",
";  c #FCFC54",
":  c gray99",
">  c #ECECEC",
",  c gainsboro",
"<  c #D0D0D0",
"1  c #C0C0C0",
"2  c #B4B4B4",
"3  c gray66",
"4  c #989898",
"5  c gray55",
"6  c #7C7C7C",
"7  c gray44",
"8  c #646464",
"9  c gray33",
"0  c #484848",
"q  c gray22",
"w  c #2C2C2C",
"e  c #202020",
"r  c #FC0000",
"t  c #EC0000",
"y  c #E00000",
"u  c #D40000",
"i  c #C80000",
"p  c #BC0000",
"a  c #B00000",
"s  c #A40000",
"d  c #980000",
"f  c #880000",
"g  c #7C0000",
"h  c #700000",
"j  c #640000",
"k  c #580000",
"l  c #4C0000",
"z  c #400000",
"x  c #FCD8D8",
"c  c #FCB8B8",
"v  c #FC9C9C",
"b  c #FC7C7C",
"n  c #FC5C5C",
"m  c #FC4040",
"M  c #FC2020",
"N  c #FC0000",
"B  c #FCA85C",
"V  c #FC9840",
"C  c #FC8820",
"Z  c #FC7800",
"A  c #E46C00",
"S  c #CC6000",
"D  c #B45400",
"F  c #9C4C00",
"G  c #FCFCD8",
"H  c #FCFCB8",
"J  c #FCFC9C",
"K  c #FCFC7C",
"L  c #FCF85C",
"P  c #FCF440",
"I  c #FCF420",
"U  c #FCF400",
"Y  c #E4D800",
"T  c #CCC400",
"R  c #B4AC00",
"E  c #9C9C00",
"W  c #848400",
"Q  c #706C00",
"!  c #585400",
"~  c #404000",
"^  c #D0FC5C",
"/  c #C4FC40",
"(  c #B4FC20",
")  c #A0FC00",
"_  c #90E400",
"`  c #80CC00",
"'  c #74B400",
"]  c #609C00",
"[  c #D8FCD8",
"{  c #BCFCB8",
"}  c #9CFC9C",
"|  c #80FC7C",
" . c #60FC5C",
".. c #40FC40",
"X. c #20FC20",
"o. c #00FC00",
"O. c #00FC00",
"+. c #00EC00",
"@. c #00E000",
"#. c #00D400",
"$. c #04C800",
"%. c #04BC00",
"&. c #04B000",
"*. c #04A400",
"=. c #049800",
"-. c #048800",
";. c #047C00",
":. c #047000",
">. c #046400",
",. c #045800",
"<. c #044C00",
"1. c #044000",
"2. c #D8FCFC",
"3. c #B8FCFC",
"4. c #9CFCFC",
"5. c #7CFCF8",
"6. c #5CFCFC",
"7. c #40FCFC",
"8. c #20FCFC",
"9. c #00FCFC",
"0. c #00E4E4",
"q. c #00CCCC",
"w. c #00B4B4",
"e. c #009C9C",
"r. c #008484",
"t. c #007070",
"y. c #005858",
"u. c #004040",
"i. c #5CBCFC",
"p. c #40B0FC",
"a. c #20A8FC",
"s. c #009CFC",
"d. c #008CE4",
"f. c #007CCC",
"g. c #006CB4",
"h. c #005C9C",
"j. c #D8D8FC",
"k. c #B8BCFC",
"l. c #9C9CFC",
"z. c #7C80FC",
"x. c #5C60FC",
"c. c #4040FC",
"v. c #2024FC",
"b. c #0004FC",
"n. c #0000FC",
"m. c #0000EC",
"M. c #0000E0",
"N. c #0000D4",
"B. c #0000C8",
"V. c #0000BC",
"C. c #0000B0",
"Z. c #0000A4",
"A. c #000098",
"S. c #000088",
"D. c #00007C",
"F. c #000070",
"G. c #000064",
"H. c #000058",
"J. c #00004C",
"K. c #000040",
"L. c #282828",
"P. c #FCE034",
"I. c #FCD424",
"U. c #FCCC18",
"Y. c #FCC008",
"T. c #FCB400",
"R. c #B420FC",
"E. c #A800FC",
"W. c #9800E4",
"Q. c #8000CC",
"!. c #7400B4",
"~. c #60009C",
"^. c #500084",
"/. c #440070",
"(. c #340058",
"). c #280040",
"_. c #FCD8FC",
"`. c #FCB8FC",
"'. c #FC9CFC",
"]. c #FC7CFC",
"[. c #FC5CFC",
"{. c #FC40FC",
"}. c #FC20FC",
"|. c #FC00FC",
" X c #E000E4",
".X c #C800CC",
"XX c #B400B4",
"oX c #9C009C",
"OX c #840084",
"+X c #6C0070",
"@X c #580058",
"#X c #400040",
"$X c #FCE8DC",
"%X c #FCE0D0",
"&X c #FCD8C4",
"*X c #FCD4BC",
"=X c #FCCCB0",
"-X c #FCC4A4",
";X c #FCBC9C",
":X c #FCB890",
">X c #FCB080",
",X c #FCA470",
"<X c #FC9C60",
"1X c #F0945C",
"2X c #E88C58",
"3X c #DC8854",
"4X c #D08050",
"5X c #C87C4C",
"6X c #BC7848",
"7X c #B47044",
"8X c #A86840",
"9X c #A0643C",
"0X c #9C6038",
"qX c #905C34",
"wX c #885830",
"eX c #80502C",
"rX c #744C28",
"tX c #6C4824",
"yX c #5C4020",
"uX c #543C1C",
"iX c #483818",
"pX c #403018",
"aX c #382C14",
"sX c #28200C",
"dX c #600064",
"fX c #006464",
"gX c #006060",
"hX c #00001C",
"jX c #00002C",
"kX c #302410",
"lX c #480048",
"zX c #500050",
"xX c #000034",
"cX c gray11",
"vX c #4C4C4C",
"bX c gray36",
"nX c gray25",
"mX c gray19",
"MX c #343434",
"NX c #D8F4F4",
"BX c #B8E8E8",
"VX c #9CDCDC",
"CX c #74C8C8",
"ZX c #48C0C0",
"AX c #20B4B4",
"SX c #20B0B0",
"DX c #00A4A4",
"FX c #009898",
"GX c #008C8C",
"HX c #008484",
"JX c #007C7C",
"KX c #007878",
"LX c #007474",
"PX c #007070",
"IX c #006C6C",
"UX c #980088",
/* pixels */
"L.L.L.L.L.L.L.L.L.L.L.L.L.L.L.L.L.L.L.L.L.L.L.L.L.L.L.L.L.L.L.L.L.L.L.L.L.L.L.L.L.L.L.L.L.L.L.L.L.L.L.L.L.L.L.L.L.L.L.L.L.L.L.L.",
"7 7 7 7 7 7 7 8 $ $ nX  L.L.L.L.L.7   L.vX$ $ 8 7 7 7 7 7 7 7 7 7 7 7 7 7 7 8 $ $ vX0   cX7   cXL.L.L.L.vX$ $ 8 7 7 7 7 7 7 7 7 ",
"8 8 8 8 $ 8 8 8 nX    L.L.L.7 7 7 $   L.nX8 8 8 8 8 8 8 8 8 8 7 7 8 $ 8 $ 8 8 vXvX$ 0   cX7 8 7 7   cXL.L.L.nX$ $ 8 vX$ $ 8 8 8 ",
"7 7 8 8 8 $ nX    L.L.L.7 7 8 8 8 8 vX  L.nX8 7 8 8 8 $ 8 8 8 7 8 7 8 8 8 8 8 8 $ 0   cX7 $ $ $ $ 7 7   cXL.L.L.nX$ vX8 $ 8 8 7 ",
"7 7 $ $ 8 nX  L.L.L.7 7 8 8 6 7 8 7 8   L.nX8 8 8 8 8 8 8 8 8 8 7 8 8 8 8 8 8 6 8 0   cX7 $ vXvXvX8 8 7 7   cXL.L.nX8 8 7 8 7 7 ",
"8 7 8 8 nX  L.L.7 7 8 8 vX8 8 vX7 8 8 $   L.nX8 8 8 $ $ 8 $ 8 8 7 8 7 6 7 7 8 8 0   cX7 vX$ vXvX$ 8 8 $ $ 7 7   cXL.nX8 8 8 7 6 ",
"8 7 8 nX  L.L.7 8 7 8 7 8 vX8 8 8 8 7 7   L.nX8 8 8 8 8 $ vX8 $ $ 8 8 7 7 8 8 8 0   cX7 $ vXvX$ 0 $ 8 $ 8 $ $ 7   cXL.nX7 8 7 7 ",
"8 8 nX  L.L.7 8 8 8 8 8 8 8 $ 8 8 7 7 7 7   L.nX$ 8 $ 8 8 vX8 8 $ 8 8 7 8 8 7 0   cX7 0 vX$ $ 8 8 8 8 8 8 8 8 8 7   cXL.nX7 7 7 ",
"        L.7 $ 7 8 $ 8 8 8 7 8 8 8 7 8 L.mX  L.nXnXnXq q mXmXL.L.L.mXmXq q nXnX0   cXnXnX8 $ 8 8 8 8 8 $ 8 8 8 7 6 7   cXL.nX8 8 ",
"L.L.L.L.L.nX7 8 8 $ 8 8 8 8 8 $ L.L.L.      L.cX                                  cXcX  nXq q 8 8 8 8 8 8 6 6 6 6 q   cXL.cX    ",
"e e e cXL.cXnXnX7 8 8 8 8 8 L.L.      cX8 8 8 8 8 8 8 8 8 8 8 8 8 8 8 8 8 8 8 8 8 8 8 L.cX    nXq 8 8 7 7 7 6 q q     cXL.cXcXcX",
"e e e e L.L.cX  nXnX$ 8 q q     cX8 8 8 2 2 2 2 2 2 2 2 2 2 4 7 $ 2 2 2 2 2 2 2 2 2 2 1 5 5 L.cX  nXq 7 6 q q       cXcXL.L.L.L.",
"e e vX8 7   L.L.L.  q q     cX8 8 2 2 2 2 2 2 2 2 2 2 2 2 7 fXy.u.$ 2 2 2 2 2 2 2 2 2 2 2 2 1 5 L.cX  nXq       cXcX7 8 vXcXL.L.",
"e e vX8 8 7 7   L.L.    cX8 8 2 2 2 2 2 2 2 2 2 2 2 2 5 l z t.y.u.z l 5 2 2 2 2 2 2 2 2 2 2 2 2 1 5 L.cX    cXcX7 7 8 7 0   L.L.",
"e vX8 8 8 8 8 8 vX  L.L.8 2 2 2 2 2 2 2 2 2 2 2 y.u.7 l h f JXy.u.f h l 7 y.y.2 2 2 2 2 2 2 2 2 2 2 1 L.L.L.vX7 8 8 8 8 8 0   L.",
"e vX8 8 8 8 8 $ nX  L.8 2 2 2 2 2 2 2 2 2 2 2 2 y.cXu.f g j JXy.u.j g f y.cXu.2 2 2 2 2 2 2 2 2 2 2 2 1 L.L.vX8 8 7 7 7 7 0   L.",
"e vX$ 8 8 8 8 nX  cX8 2 2 2 2 2 2 2 2 2 2 2 2 2 8 y.cXu.j f JXy.u.f j y.cXu.8 2 2 2 2 2 2 2 2 2 2 2 2 2 1 L.cXvX7 6 6 7 8 0   L.",
"e vX8 8 8 8 $ nX  8 2 2 2 2 2 2 2 2 2 2 2 2 5 2 2 5 y.cXu.f t.y.u.f y.cXu.5 2 2 5 2 2 2 2 2 2 2 2 2 2 2 2 1 L.vX8 8 8 8 $ 0   L.",
"e vX8 8 $ 8 nX  cX8 2 2 2 2 2 2 2 2 2 4 5 2 0 4 2 2 2 y.  cX  cX  cX  u.2 2 2 4 0 2 5 4 2 2 2 2 2 2 2 2 2 < L.cXvX8 7 8 $ 0   L.",
"e nXnXq q nXnX  7 2 2 2 2 2 2 2 2 2 2 vXvX4 6 0 5 2 2 2 mXL.z z z L.cX2 2 2 5 0 6 4 vXvX2 2 2 2 2 2 2 2 2 2 1 L.nXnXq q nXnX  L.",
"e e             7 2 2 2 2 2 2 2 2 2 2 8 8 $ $ vX0 0 0 7 vXpXpXuXpXpXvX7 0 0 0 vX$ $ 8 8 2 2 2 2 2 2 2 2 2 2 < L.cX            L.",
"e e e e e e e e 6 2 2 2 2 2 2 2 2 2 2 7 $ 8 8 8 8 $ $ 0 L.cXcXcXcXcX  0 $ $ 8 8 8 8 $ 7 2 2 2 2 2 2 2 2 2 2 < L.cXcXcXcXcXcXcXL.",
"7 7 7 8 $ $ vXcX7 2 2 2 2 2 2 2 2 2 2 6 $ 8 8 8 $ $ $ vXL.g j g j g   vX$ $ $ 8 8 8 $ 6 2 2 2 2 2 2 2 2 2 2 < L.vX$ $ 8 7 7 7 7 ",
"8 8 8 $ $ 8 0   8 2 2 2 2 2 2 5 6 2 2 $ $ $ vX$ $ $ 8 $ L.j g j g j   $ 8 $ $ $ vX$ $ $ 2 2 6 5 2 2 2 2 2 2 < L.vX6 5 6 6 7 6 7 ",
"8 8 8 8 8 8 0   8 2 2 2 2 7 $ $ $ 7 vX0 vX$ $ 8 8 8 $ 8 $ nXnXmXL.L.7 8 $ 8 8 8 $ $ vX0 vX7 $ $ $ 7 2 2 2 2 < L.vX7 6 6 7 7 8 6 ",
"8 8 8 8 8 8 0   8 2 2 2 6 $ 8 8 $ Q W W ! Q $ 8 8 $ 8 2 2 nX8 vX8 L.2 2 8 $ 8 8 $ Q ! W W Q $ 8 8 $ 6 2 2 2 < L.vX7 7 7 7 7 8 6 ",
"8 8 7 8 7 8 0   8 2 2 2 $ 8 8 $ Q Q R W ! Q Q vX$ vX2 2 nX$ 8 vX8 $ L.2 2 vX$ vXQ Q ! W R Q Q $ 8 8 $ 2 2 2 < L.vX8 7 6 6 7 7 7 ",
"7 7 7 8 8 7 0   8 2 2 2 8 8 8 $ E W W R W Q ! Q 8 2 2 nX$ $ 8 vX8 $ $ L.2 2 8 Q ! Q W R W W E $ 8 8 8 2 2 2 < L.vX7 8 7 7 7 7 6 ",
"8 7 7 5 6 8 0   8 2 2 2 $ 8 $ uXkXz W W Q W W Q Q T Y ! vX$ 8 vX8 $ vX! Y T Q Q W W Q W W z kXuX$ 8 $ 2 2 2 < L.vX8 8 7 7 8 $ 8 ",
"6 6 6 7 7 7 0   8 2 2 2 5 8 $ uXuX~ Q Q Q W W Q ~ W Q ~ mX$ 8 vX8 $ mX~ Q W ~ Q W W Q Q Q ~ uXuX$ 8 5 2 2 2 < L.vX7 7 8 8 7 6 7 ",
"mXmXmXq q nXnX  8 2 2 2 2 2 2 5 $ $ W W W W W Q f f f f f f f q f f f f f f f Q W W W W W $ $ 5 2 2 2 2 2 2 < L.nXnXq q mXmXmXL.",
"                7 2 2 2 2 2 2 2 2 W Q Q W W Q W f s s s s s f uXf s s s s s f W Q W W Q Q W 2 2 2 2 2 2 2 2 < L.cX              ",
"e e e e e e e e 6 2 2 W E R # 2 R Q Q W Q Q W Q f s cXcXcXa cXcXcXcXcXcXcXs f Q W Q Q W Q Q R 2 # R E W 2 2 < L.e e e e e e e L.",
"e vX$ 8 8 $ vXcX7 2 E T 2 # R 2 E W W W W W W Q f s cXcX  i cXcXcXcXcXcX  s f Q W W W W W W E 2 R # 2 T E 2 < L.vX$ 8 8 $ vXcXL.",
"e vX$ $ 7 8 0   8 E R 2 2 E 2 2 W W W W W W W ! f s cXcX  i cXcX          s f ! W W W W W W W 2 2 E 2 2 R E < L.vX7 8 8 8 0   L.",
"e vX$ 8 8 8 0   8 2 2 2 R R 2 2 W Q W E E W ! 2 f s cXcX  M cXcX  M i i a s f 2 ! W E E W Q W 2 2 R R 2 2 2 < L.vX8 8 8 8 0   L.",
"e vX8 8 7 $ 0   8 2 2 2 E 2 2 2 R R W E R W 4 2 f f cXcX  cXcXcX  cXcXcXcXf f 2 4 W R E W R R 2 2 2 E 2 2 2 < L.vX6 8 8 8 0   L.",
"e vX8 8 7 $ 0   8 2 2 R R 2 2 R R R R W W R E Y F yXcXcXcXcXcXcXcXcXcXcX  d F Y E R W W R R R R 2 2 R R 2 2 < L.vX6 $ $ $ 0   L.",
"e vX8 8 7 8 0   8 2 2 E 2 2 E R R R E W Q Q R R f f cX        cX      cX  f f R R Q Q W E R R R E 2 2 E 2 2 < L.vX8 8 $ vX0   L.",
"e vX8 $ 6 8 0   8 2 2 2 E E R R R R W 2 2 2 2 W f s a i i M cXcX  M cXcX  s f W 2 2 2 2 W R R R R E E 2 2 2 < L.vX8 7 7 8 0   L.",
"e vX8 8 8 8 0   8 2 2 2 2 R E E R R E 2 2 2 2 # f s cXcXcXcXcXcX  i cXcX  s f # 2 2 2 2 E R R E E R 2 2 2 2 < L.vX8 8 7 8 0   L.",
"e nXnXq q nXnX  8 2 2 2 2 R R W E R R E 2 2 2 2 f s cXcXcXcXcXcX  i cXcX  s f 2 2 2 2 E R R E W R R 2 2 2 2 < L.nXq q q nXnX  L.",
"e cX            7 2 2 R R R R R W R R R E 2 2 2 f s cX            a cXcX  s f 2 2 2 E R R R W R R R R R 2 2 < L.cX            L.",
"e cXcXcXcXcXcXe 6 2 # W R R R T 2 # R R E 2 2 2 f s s s s s f cXf s s s s s f 2 2 2 E R R # 2 T R R R W # 2 < L.cXcXcXcXcXcXe L.",
"7 7 7 8 $ $ vXcX7 2 R E T T 2 2 2 2 R R E 2 2 2 f f f f f f f   f f f f f f f 2 2 2 E R R 2 2 2 2 T T E R 2 < L.vX$ $ 8 7 7 7 7 ",
"8 8 8 $ $ 8 0   8 2 R R 2 2 2 2 2 1 W R W 2 2 2 4 q vXvXq L.0 0 0 L.q vXvXq 4 2 2 2 W R W 1 2 2 2 2 2 R R 2 < L.vX8 8 8 8 8 8 7 ",
"8 8 8 8 8 8 0   8 0 8 R T 2 2 2 2 2 4 E R 2 2 2 # vX8 8 vXq $ $ $ q vX8 8 vX# 2 2 2 R E 4 2 2 2 2 2 T R 8 0 < L.vX8 $ $ 8 8 8 6 ",
"8 8 8 8 8 8 0   8 5 ~ W W ~ T 2 2 2 2 T E Y 2 2 # vX8 8 vXq $ $ $ q vX8 8 vX# 2 2 Y E T 2 2 2 2 T ~ W W ~ 5 < L.vX8 8 vXvX8 8 7 ",
"8 8 7 8 7 8 0   8 W W W Q W R R R R R W W E W Q R E $ 8 vXq $ $ $ q vX8 $ E R Q W E W W R R R R R W Q W W W < L.vX$ vX$ $ $ 8 8 ",
"7 7 7 8 8 7 0   8 2 2 2 T Y T T T R R E E E W W R R W $ vXq $ $ $ q vX$ W R R W W E E E R R T T T Y T 2 2 2 < L.vX$ vX8 8 8 8 7 ",
"8 7 7 5 6 8 0   8 2 2 2 2 2 2 2 2 T T T R R R R R R R E q q vXvXvXq q E R R R R R R R T T T 2 2 2 2 2 2 2 2 < L.vX8 8 8 8 8 7 8 ",
"6 6 6 7 7 7 0   8 2 2 2 2 2 2 2 2 2 2 2 T T T R R R R R R E W W W E R R R R R R T T T 2 2 2 2 2 2 2 2 2 2 2 < L.vXvX8 vX0 8 8 7 ",
"mXmXmXq q nXnX  8 2 2 2 2 2 2 2 2 2 2 2 2 2 2 T T T T T R R R R R R R T T T T T 2 2 2 2 2 2 2 2 2 2 2 2 2 2 < L.nXnXq q mXmXmXL.",
"                7 1 < < < < < < < < < < < < < < < < < < < < < < < < < < < < < < < < < < < < < < < < < < < < < L.cX              ",
"e e e e e e e e L.L.L.L.L.L.L.L.L.L.L.L.L.L.L.L.L.L.L.L.L.L.L.L.L.L.L.L.L.L.L.L.L.L.L.L.L.L.L.L.L.L.L.L.L.L.L.L.e e e e e e e e ",
"L.vX$ $ 8 7 7 7 7 7 7 7 7 7 7 7 7 7 7 7 7 7 7 7 7 7 8 $ $ vXcXL.L.vX$ $ 8 7 7 7 7 7 7 7 7 7 7 7 7 7 7 7 7 7 7 7 7 7 8 $ $ vXcXL.",
"L.vX8 8 7 8 7 7 6 7 7 7 6 7 8 8 7 7 7 8 $ vX8 $ 8 8 8 7 7 0   L.L.vX7 8 7 8 8 8 8 6 6 6 7 6 7 8 8 7 7 8 8 8 8 $ 8 7 7 8 6 0   L.",
"L.vX8 8 8 7 8 6 6 5 5 6 8 8 8 8 8 7 8 7 8 $ 8 8 8 7 8 6 7 0   L.L.vX$ 8 8 8 8 8 8 8 6 7 6 7 7 7 8 7 8 8 8 8 8 8 8 8 8 7 6 0   L.",
"L.vX8 $ 8 7 8 6 6 6 6 6 8 7 8 $ 8 8 8 8 7 8 $ 7 7 7 8 6 7 0   L.L.vXvX8 8 8 8 8 8 8 7 8 7 7 8 8 8 8 $ 8 8 8 8 8 7 8 8 7 8 0   L.",
"L.vXvXvX8 vX6 7 6 6 5 6 8 8 $ 8 $ 8 8 8 8 7 8 8 7 7 6 6 8 0   L.L.vX8 8 8 8 $ $ $ $ 8 8 7 7 8 8 8 vX8 $ 8 7 8 8 7 7 8 7 7 0   L.",
"L.vX8 vX8 8 8 7 7 6 6 5 7 8 8 vXvX8 8 7 8 7 8 8 7 7 7 7 8 0   L.L.vXvX8 8 8 vX$ $ $ $ $ 7 8 7 8 8 vX8 8 $ 7 7 7 6 6 8 8 $ 0   L.",
"L.vX8 $ vX8 8 8 7 7 8 7 8 8 8 8 $ 8 8 7 8 7 7 8 8 7 8 7 7 0   L.L.vX8 vX$ vX8 vX$ 8 vX$ 8 8 7 7 8 8 $ 8 8 8 6 7 7 8 7 7 $ 0   L.",
"L.nXnXnXq q mXmXmXL.L.L.L.L.L.L.L.L.L.L.L.mXmXmXmXq q nXnXnX  L.L.nXnXnXq q mXmXmXL.L.L.L.L.L.L.L.L.L.L.L.mXmXmXmXq q nXnXnX  L.",
"L.cX                                                          L.L.cX                                                          L."
};
